<?xml version="1.0" encoding="UTF-8"?><svg id="Layer_2" xmlns="http://www.w3.org/2000/svg" viewBox="0 0 388.11 158.03"><defs><style>.cls-1{fill:#a3dadd;}.cls-2{fill:#abaaae;}.cls-3{fill:#717477;}.cls-4{fill:none;stroke:#010101;stroke-miterlimit:10;}</style></defs><g id="Layer_1-2"><g><g><path class="cls-3" d="M342.34,90.41c.55,3.48,2.1,6.95,2.1,6.95l-2.38,5.58s-37.69,27.26-39.25,28.36-3.38,.64-3.38,.64l-28.73-4.48,27.54-21.68,4.94-12.44c17.84-.37,38.52-1.01,39.34-1.65-.09-.46-.09-.91-.18-1.28Z"/><path class="cls-2" d="M189.1,66.99l5.21-8.33-16.56-3.93s-5.76,8.97-5.86,11.07c1.28,.55,17.2,1.19,17.2,1.19Zm-59.37,20.68l-55.99-5.95s-4.03,1.56-6.95,3.84c-1.65,1.37-3.02,2.84-3.11,4.48,0,.73-.09,1.65-.18,2.74,0,1.01-.09,2.1-.09,3.29l-19.58-5.03-4.12-1.1,.27-1.46s.37-1.92-.46-3.11c-.64-2.2,2.38-10.34,2.38-10.34,14.91,1.74,58.46,6.5,90.57,5.95,2.29-.09,4.48-.27,4.48-.27,8.42-.55,13.17-.82,17.29-2.2,10.43-3.38,15.55-13.08,17.93-17.47,2.01-3.75,4.3-8.14,2.56-11.98-1.37-3.2-4.76-4.57-6.13-5.12-7.04-2.65-18.02-3.84-29-4.39,5.49,0,23.88-.64,23.88-.64,0,0,14.82-1.37,22.23-.18,5.03,0,9.79,1.37,16.65,3.57,6.77,2.2,8.97,10.8,8.97,10.8,0,0-4.03-1.1-8.51,.91-1.46,.73-3.84,2.1-7.23,7.23-2.1,3.2-7.23,11.34-7.41,22.96-.18,7.23,1.74,10.61,2.2,11.53,1.46,2.47,3.29,4.21,4.57,5.21-1.1,.18-2.65,.64-4.39,1.56-2.01,1.1-3.11,2.1-4.12,2.93-2.29,1.83-4.3,2.65-7.96,4.03-5.21,1.92-9.42,2.29-14.64,2.65-5.86,.46-10.15,.18-11.16,.09-3.02-.18-5.95-.64-6.95-.91h-.18l-.18-.09-1.28-.18s-5.4,2.84-8.51-1.46-5.31-9.97-5.21-20.49c0,0-.55-1.56-1.37-.64v-.09c.46-.37,.73-.64,.73-.64Z"/><path class="cls-2" d="M317.73,58.3l-4.03,10.52c-8.87-1.19-17.57-2.38-22.96-3.2,0,0,10.43-24.7,10.98-25.52,.18-.27,4.12-.27,9.24-.18l6.77,18.39Z"/><path class="cls-2" d="M73.74,81.72l55.99,5.95s-.27,.27-.73,.64c-1.37,1.19-4.3,3.75-4.94,5.12-.91,1.92-.55,28.73,1.56,30.65l-38.42-6.31v-.09l-5.12-22.41-18.57-2.47c.09-1.1,.18-2.01,.18-2.74,.09-1.65,1.46-3.11,3.11-4.48,2.93-2.29,6.95-3.84,6.95-3.84Z"/><path class="cls-2" d="M107.59,27.01c2.1-1.01,19.12-.91,19.12-.91,0,0,27.99,.82,42.72,1.37-.82,1.28-6.5,8.6-6.31,9.33,.18,.64,.37,2.1,.37,2.1,0,0-18.39,.64-23.88,.64h-1.01c-12.17-.55-24.06-.18-30.1,.09l-4.03-2.84s1.1-8.69,3.11-9.79Z"/><path class="cls-2" d="M290.74,65.61c5.4,.82,14.09,2.01,22.96,3.2,16.56,2.1,34.03,4.21,34.03,4.21-.09,.09-.18,.18-.27,.18l-1.19,1.19c-.09,.09-.18,.18-.27,.37-.91,.91-1.65,2.2-2.1,3.38-.91,1.83-1.28,3.75-1.46,5.49-.09,.55-.09,1.1-.09,1.56-.18,.46-.18,.82-.09,1.28-.09,.37-.09,.73-.09,1.19v.37c0,.73,.09,1.56,.18,2.38,.09,.37,.09,.82,.18,1.28-.82,.64-21.5,1.28-39.34,1.65-11.71,.27-22.14,.46-24.98,.55h-.73c-.55-1.19-1.1-2.38-1.65-4.57-.64-2.47-1.37-5.4-.91-9.24,.46-4.3,2.2-7.5,3.11-8.87,2.29-3.66,5.21-5.67,6.77-6.68,.18,.18,2.38,.55,5.95,1.1Z"/><path class="cls-1" d="M84.26,37.62c5.76,.09,11.62,.27,17.47,.37l2.65,1.83s1.56-.09,4.12-.18c6.04-.27,17.93-.64,30.1-.09h1.01c10.98,.55,21.96,1.74,29,4.39,1.37,.55,4.76,1.92,6.13,5.12,1.74,3.84-.55,8.23-2.56,11.98-2.38,4.39-7.5,14.09-17.93,17.47-4.12,1.37-8.87,1.65-17.29,2.2,0,0-2.2,.18-4.48,.27-32.11,.55-75.66-4.21-90.57-5.95-1.28-.18-2.29-.27-3.11-.37,0,0-7.78-8.05-6.77-8.51,1.01-.37,7.5,.27,11.16,.82l35.13,4.21,1.56-.27-.09,.37s49.95,2.56,59.28-2.1c9.24-4.57,16.92-16.19,15.37-23.24-1.46-7.04-54.98-2.56-54.98-2.56l-.46,1.01c-.27,0-.73-.09-1.28-.09-8.6,.09-40.89,3.93-40.89,3.93,0,0-2.1-10.89-2.2-11.16,0-.18,6.31,0,9.61,.09,1.19,.09,1.92,.09,1.92,.09v-.09c6.04,.18,12.08,.27,18.11,.46Z"/><path class="cls-3" d="M346.73,85.38c-.09,4.12,1.74,10.43,2.01,11.44-2.65,.37-4.3,.55-4.3,.55,0,0-1.56-3.48-2.1-6.95-.09-.82-.18-1.65-.18-2.38v-.37c0-.37,.09-.73,.09-1.19s0-.82,.09-1.28c0-.46,0-1.01,.09-1.56,.27-2.2,.82-4.03,1.46-5.49,.64-1.37,1.46-2.56,2.1-3.38,.09-.18,.18-.27,.27-.37,.37-.46,.73-.82,1.19-1.19,.09,0,.18-.09,.27-.18,0,0,1.83-2.29,4.3-3.29,.37,.09,1.46,.55,3.02,1.28-6.68,6.04-8.23,10.89-8.33,14.36Z"/><path class="cls-3" d="M163.49,38.9s-.18-1.46-.37-2.1c-.18-.73,5.49-8.05,6.31-9.33,2.84,.09,5.21,.18,6.77,.27h.09c1.19,.09,2.38,.27,3.02,.27h.37c.55,0,1.37,0,2.2,.18,1.37,.46,2.84,1.46,3.38,4.12,.37,1.83,.46,6.4,.46,6.4-7.41-1.19-22.23,.18-22.23,.18Z"/><path class="cls-2" d="M386.53,85.01c.55,.64,1.56,2.65,.82,4.48-.37,.82-.91,1.37-1.46,1.83-.73,.73-1.37,1.1-1.56,1.19-1.37,.64-2.65,.64-3.02,.64-3.48,.09-23.6,2.56-32.57,3.66-.27-1.01-2.1-7.32-2.01-11.44,.09-3.48,1.65-8.33,8.33-14.36h.09c8.14,3.48,29.09,12.26,29.92,12.81l.55,.37s.55,.37,.91,.82Z"/><path class="cls-3" d="M335.3,40.55s17.11,27.08,16.74,29.18c-2.47,1.01-4.3,3.29-4.3,3.29,0,0-17.47-2.1-34.03-4.21l4.03-10.52-6.77-18.39c9.97,.09,24.34,.64,24.34,.64Z"/><path class="cls-2" d="M275.37,100.11v-.09l2.84-6.13c2.84-.09,13.27-.27,24.98-.55l-4.94,12.44-27.54,21.68-7.41-1.1,12.08-26.26Z"/><path class="cls-3" d="M277.48,93.88h.73l-2.84,6.13c-1.01-1.1-8.51-9.51-5.95-21.59,2.74-12.9,10.8-16.83,10.8-16.83,0,0,3.57,2.01,4.57,2.93-1.56,1.01-4.48,3.02-6.77,6.68-.91,1.37-2.65,4.57-3.11,8.87-.46,3.84,.27,6.77,.91,9.24,.55,2.2,1.1,3.38,1.65,4.57Z"/><path class="cls-2" d="M243.54,57.11l36.69,4.48s-8.05,3.93-10.8,16.83c-2.56,12.08,4.94,20.49,5.95,21.59v.09l-37.6,.64s-2.65-3.02-2.93-3.29c-3.2-3.66-3.93-11.25-4.03-12.35-.82-9.33,2.93-16.38,3.84-17.93,2.84-5.12,6.5-8.33,8.87-10.06Zm8.69,35.77c.73-.18,1.19-.82,1.1-1.56-.18-.73-.91-1.19-1.56-1.1-.73,.18-1.28,.82-1.1,1.56s.82,1.19,1.56,1.1Zm-5.4,0c.73-.09,1.19-.82,1.1-1.56-.18-.73-.82-1.19-1.56-1.01-.73,.09-1.19,.82-1.1,1.56,.18,.73,.82,1.19,1.56,1.01Z"/><path class="cls-2" d="M211.33,53.08l32.2,4.03c-2.38,1.74-6.04,4.94-8.87,10.06-.91,1.56-4.67,8.6-3.84,17.93,.09,1.1,.82,8.69,4.03,12.35,.27,.27,2.93,3.29,2.93,3.29-14.27,.09-28.54,.09-42.82,.18-1.28-1.01-3.11-2.74-4.57-5.21-.46-.91-2.38-4.3-2.2-11.53,.18-11.62,5.31-19.76,7.41-22.96,3.38-5.12,5.76-6.5,7.23-7.23,4.48-2.01,8.51-.91,8.51-.91Zm14.73,8.78c.64-2.29,3.66-4.76,3.66-4.76-15.83-2.1-24.06-2.56-24.06-2.56,0,0-1.56,.82-1.83,1.01-.82,.55-2.01,1.46-3.29,3.48l25.52,2.84Zm-2.29,4.76c-8.69-.91-17.38-1.83-26.07-2.74-1.01,.18-2.29,2.56-3.38,4.94-1.01,2.29-1.83,4.57-1.83,4.57,2.1,0,10.25,.55,27.26,1.92,.27-1.46,.82-3.48,2.01-5.58,.64-1.28,1.37-2.29,2.01-3.11Zm-9.61,24.06c.73-.18,1.19-.82,1.01-1.56-.09-.73-.82-1.19-1.56-1.1-.73,.18-1.19,.82-1.01,1.56,.09,.73,.82,1.19,1.56,1.1Zm-5.21,.09c.64-.09,1.1-.82,1.01-1.46-.18-.73-.82-1.19-1.56-1.1-.73,.18-1.19,.82-1.01,1.56,.09,.73,.82,1.19,1.56,1.01Zm-4.67,.18c.73-.18,1.28-.91,1.1-1.65-.09-.73-.82-1.28-1.65-1.1-.73,.09-1.19,.82-1.1,1.65,.18,.73,.91,1.19,1.65,1.1Z"/><path class="cls-3" d="M229.72,57.11s-3.02,2.47-3.66,4.76l-25.52-2.84c1.28-2.01,2.47-2.93,3.29-3.48,.27-.18,1.83-1.01,1.83-1.01,0,0,8.23,.46,24.06,2.56Z"/><path class="cls-3" d="M197.7,63.88c8.69,.91,17.38,1.83,26.07,2.74-.64,.82-1.37,1.83-2.01,3.11-1.19,2.1-1.74,4.12-2.01,5.58-17.02-1.37-25.16-1.92-27.26-1.92,0,0,.82-2.29,1.83-4.57,1.1-2.38,2.38-4.76,3.38-4.94Z"/><path class="cls-3" d="M194.32,58.66l-5.21,8.33s-15.92-.64-17.2-1.19c.09-2.1,5.86-11.07,5.86-11.07l16.56,3.93Z"/><path class="cls-3" d="M154.43,45.95c1.56,7.04-6.13,18.66-15.37,23.24-9.33,4.67-59.28,2.1-59.28,2.1l.09-.37,2.01-.37s16.74-24.15,17.93-25.89c.09-.18-.18-.27-.82-.27l.46-1.01s53.52-4.48,54.98,2.56Z"/><path class="cls-3" d="M145.74,115.57c0,2.65-.37,5.76-1.28,6.04-1.83,.46-16.74,4.3-18.85,2.47-2.1-1.92-2.47-28.73-1.56-30.65,.64-1.37,3.57-3.93,4.94-5.12v.09c.82-.91,1.37,.64,1.37,.64-.09,10.52,2.1,16.19,5.21,20.49s8.51,1.46,8.51,1.46c0,0,1.65,3.02,1.65,4.57Z"/><path class="cls-3" d="M119.57,18.13l7.14,7.96s-17.02-.09-19.12,.91c-4.03,.09-6.22,.82-7.04,4.48-.73,3.66,3.93,5.31,3.93,5.31l4.03,2.84c-2.56,.09-4.12,.18-4.12,.18l-2.65-1.83c-5.86-.09-11.71-.27-17.47-.37l14.91-21.32c6.5-.18,13.72-.37,19.94-.55l.46,2.38Z"/><path class="cls-3" d="M110.79,.57l7.96,13.45c-1.74,.09-8.51,.27-18.66,.55l10.25-9.97-1.56-3.57,2.01-.46Z"/><path class="cls-2" d="M108.78,1.03l1.56,3.57-10.25,9.97c-5.31,.09-11.53,.27-18.39,.55h-.27l.27-7.5L108.78,1.03Z"/><path class="cls-2" d="M107.59,27.01c-2.01,1.1-3.11,9.79-3.11,9.79,0,0-4.67-1.65-3.93-5.31,.82-3.66,3.02-4.39,7.04-4.48Z"/><path class="cls-2" d="M98.99,44.39c.64,0,.91,.09,.82,.27-1.19,1.74-17.93,25.89-17.93,25.89l-2.01,.37-1.56,.27,19.4-26.81v-.09c.55,0,1.01,.09,1.28,.09Z"/><path class="cls-2" d="M99.17,16.3l-14.91,21.32c-6.04-.18-12.08-.27-18.11-.46l15.1-20.49c2.65,0,9.7-.18,17.93-.37Z"/><path class="cls-3" d="M97.71,44.3v.09l-19.4,26.81-35.13-4.21c1.65-5.86,13.63-18.75,13.63-18.75,0,0,32.29-3.84,40.89-3.93Zm-17.02,10.06c.91-1.83,.82-3.93-.27-5.12-1.19-1.28-3.11-1.01-4.85-.82-.46,0-2.93,.37-5.31,2.29-.55,.46-2.29,1.83-3.29,4.3-.37,.82-.73,1.92-.55,3.2,.09,.91,.55,1.65,.82,2.1,.37,.37,1.1,1.01,2.01,1.28,2.56,.82,5.12-.91,6.77-2.01,1.1-.82,3.11-2.38,4.67-5.21Z"/><path class="cls-3" d="M87.19,117.67v.09l-13.17-2.2s-2.38-.73-7.04-4.03c-3.2-2.29-3.66-9.7-3.57-15.46,0-1.19,.09-2.29,.09-3.29l18.57,2.47,5.12,22.41Z"/><path class="cls-2" d="M80.42,49.24c1.1,1.19,1.19,3.29,.27,5.12-1.56,2.84-3.57,4.39-4.67,5.21-1.65,1.1-4.21,2.84-6.77,2.01-.91-.27-1.65-.91-2.01-1.28-.27-.46-.73-1.19-.82-2.1-.18-1.28,.18-2.38,.55-3.2,1.01-2.47,2.74-3.84,3.29-4.3,2.38-1.92,4.85-2.29,5.31-2.29,1.74-.18,3.66-.46,4.85,.82Z"/><path class="cls-3" d="M74.01,115.57l-31.56,12.26h-.09c-.09-.55-.73-.91-.73-.91l-20.86-3.84,23.05-32.02,19.58,5.03c-.09,5.76,.37,13.17,3.57,15.46,4.67,3.29,7.04,4.03,7.04,4.03Z"/><polygon class="cls-2" points="43.82 91.05 20.77 123.07 3.11 119.87 19.3 97.54 39.71 89.95 43.82 91.05"/><path class="cls-3" d="M40.16,128.83l-24.98,28.64-2.56-.73,10.34-12.26-2.38-18.85c8.33,1.28,17.02,2.74,19.58,3.2Z"/><path class="cls-2" d="M38.79,74.67c.82,.09,1.83,.18,3.11,.37,0,0-3.02,8.14-2.38,10.34-.27-.37-.73-.73-1.37-.82-1.28-.18-1.46-.27-2.29-.73-1.19-.91-1.37-2.65-1.37-3.2-.18-1.92,.73-4.03,2.2-4.94,0,0,.09-.09,2.1-1.01Z"/><path class="cls-2" d="M20.59,125.63l2.38,18.85-10.34,12.26-4.94-1.37L2.2,122.52s9.06,1.46,18.39,3.11Z"/></g><g><path class="cls-4" d="M145.74,115.57c0-1.56-1.65-4.57-1.65-4.57,0,0-5.4,2.84-8.51-1.46s-5.31-9.97-5.21-20.49c0,0-.55-1.56-1.37-.64"/><path class="cls-4" d="M145.74,111.27s.09,2.01,0,4.3c0,2.65-.37,5.76-1.28,6.04-1.83,.46-16.74,4.3-18.85,2.47-2.1-1.92-2.47-28.73-1.56-30.65,.64-1.37,3.57-3.93,4.94-5.12,.46-.37,.73-.64,.73-.64l1.46,.18"/><line class="cls-4" x1="144.09" y1="110.99" x2="145.37" y2="111.18"/><path class="cls-4" d="M145.56,111.27c-.09-.09-.18-.09-.18-.09l.18,.09"/><path class="cls-4" d="M145.56,111.27h.18"/><path class="cls-4" d="M185.72,38.72c5.03,0,9.79,1.37,16.65,3.57,6.77,2.2,8.97,10.8,8.97,10.8,0,0-4.03-1.1-8.51,.91-1.46,.73-3.84,2.1-7.23,7.23-2.1,3.2-7.23,11.34-7.41,22.96-.18,7.23,1.74,10.61,2.2,11.53,1.46,2.47,3.29,4.21,4.57,5.21-1.1,.18-2.65,.64-4.39,1.56-2.01,1.1-3.11,2.1-4.12,2.93-2.29,1.83-4.3,2.65-7.96,4.03-5.21,1.92-9.42,2.29-14.64,2.65-5.86,.46-10.15,.18-11.16,.09-3.02-.18-5.95-.64-6.95-.91"/><path class="cls-4" d="M181.88,28.2c1.46,.18,1.92,.37,2.65,1.37,.46,.64,.73,1.56,.73,2.74"/><path class="cls-4" d="M176.29,27.74c.64,0,1.1,.09,1.46,.09,.55,.09,1.1,.09,1.56,.18"/><path class="cls-4" d="M119.12,15.76l.46,2.38,7.14,7.96s27.99,.82,42.72,1.37c2.84,.09,5.21,.18,6.77,.27"/><polyline class="cls-4" points="81.42 15.39 81.42 15.11 81.7 7.61 108.78 1.03 110.79 .57 118.75 14.02"/><path class="cls-4" d="M40.25,128.74l-.09,.09-24.98,28.64-2.56-.73-4.94-1.37L2.2,122.52c-.09,0-.27-.09-.55-.18-.46-.18-.64-.27-.82-.37-.37-.37-.46-1.1-.09-1.56,0-.09,.18-.46,.64-.55,.27-.18,.55-.09,1.1-.09,.27,.09,.46,.09,.64,.09l16.19-22.32,20.4-7.59,.27-1.46s.37-1.92-.46-3.11c-.27-.37-.73-.73-1.37-.82-1.28-.18-1.46-.27-2.29-.73-1.19-.91-1.37-2.65-1.37-3.2-.18-1.92,.73-4.03,2.2-4.94,0,0,.09-.09,2.1-1.01,0,0-7.78-8.05-6.77-8.51,1.01-.37,7.5,.27,11.16,.82,1.65-5.86,13.63-18.75,13.63-18.75,0,0-2.1-10.89-2.2-11.16,0-.18,6.31,0,9.61,.09,1.19,.09,1.92,.09,1.92,.09v-.09l15.1-20.49"/><polyline class="cls-4" points="125.61 124.07 87.19 117.76 74.01 115.57 42.45 127.83"/><path class="cls-4" d="M129.73,87.66l-55.99-5.95s-4.03,1.56-6.95,3.84c-1.65,1.37-3.02,2.84-3.11,4.48,0,.73-.09,1.65-.18,2.74,0,1.01-.09,2.1-.09,3.29-.09,5.76,.37,13.17,3.57,15.46,4.67,3.29,7.04,4.03,7.04,4.03"/><polyline class="cls-4" points="63.4 96.08 43.82 91.05 39.71 89.95"/><path class="cls-4" d="M3.11,119.87l17.66,3.2,20.86,3.84s.64,.37,.73,.91h.09c0,.09,0,.27-.09,.46-.37,.73-1.01,.73-1.46,.64,0,0-.27-.09-.73-.09-2.56-.46-11.25-1.92-19.58-3.2-9.33-1.65-18.39-3.11-18.39-3.11"/><polyline class="cls-4" points="12.63 156.74 22.96 144.48 20.59 125.63 20.59 125.54"/><polyline class="cls-4" points="20.68 123.16 20.77 123.07 43.82 91.05 44.1 90.68"/><polyline class="cls-4" points="63.49 92.79 82.06 95.26 87.19 117.67"/><path class="cls-4" d="M43.18,66.99l35.13,4.21,1.56-.27,2.01-.37s16.74-24.15,17.93-25.89c.09-.18-.18-.27-.82-.27-.27,0-.73-.09-1.28-.09-8.6,.09-40.89,3.93-40.89,3.93"/><path class="cls-4" d="M138.6,39.54c-12.17-.55-24.06-.18-30.1,.09-2.56,.09-4.12,.18-4.12,.18l-2.65-1.83c-5.86-.09-11.71-.27-17.47-.37-6.04-.18-12.08-.27-18.11-.46h-1.92"/><path class="cls-4" d="M38.79,74.67c.82,.09,1.83,.18,3.11,.37,14.91,1.74,58.46,6.5,90.57,5.95,2.29-.09,4.48-.27,4.48-.27,8.42-.55,13.17-.82,17.29-2.2,10.43-3.38,15.55-13.08,17.93-17.47,2.01-3.75,4.3-8.14,2.56-11.98-1.37-3.2-4.76-4.57-6.13-5.12-7.04-2.65-18.02-3.84-29-4.39"/><path class="cls-4" d="M194.32,58.66l-16.56-3.93s-5.76,8.97-5.86,11.07c1.28,.55,17.2,1.19,17.2,1.19l5.21-8.33Z"/><path class="cls-4" d="M108.5,39.63l-4.03-2.84s1.1-8.69,3.11-9.79c2.1-1.01,19.12-.91,19.12-.91"/><path class="cls-4" d="M185.72,38.72s-.09-4.57-.46-6.4c-.55-2.65-2.01-3.66-3.38-4.12-.82-.18-1.65-.18-2.2-.18h-.37c-.64,0-1.83-.18-3.02-.27h-.09c-2.74-.18-5.95-.55-6.77-.27-.82,1.28-6.5,8.6-6.31,9.33,.18,.64,.37,2.1,.37,2.1,0,0,14.82-1.37,22.23-.18Z"/><path class="cls-4" d="M100.09,14.57c-5.31,.09-11.53,.27-18.39,.55h-1.19c-.27,.09-.27,.18-.46,.37-.18,.27-.09,.64-.09,.73,0,0,.09,.46,.27,.46h1.01c2.65,0,9.7-.18,17.93-.37,6.5-.18,13.72-.37,19.94-.55h1.01c.09-.09,.37-.27,.46-.64,0-.09,.09-.37,0-.55-.09-.27-.27-.37-.37-.46-.46-.27-1.01-.09-1.1-.09h-.37c-1.74,.09-8.51,.27-18.66,.55Z"/><path class="cls-4" d="M98.99,44.39l.46-1.01s53.52-4.48,54.98,2.56c1.56,7.04-6.13,18.66-15.37,23.24-9.33,4.67-59.28,2.1-59.28,2.1l.09-.37"/><path class="cls-4" d="M211.33,53.08l32.2,4.03c-2.38,1.74-6.04,4.94-8.87,10.06-.91,1.56-4.67,8.6-3.84,17.93,.09,1.1,.82,8.69,4.03,12.35,.27,.27,2.93,3.29,2.93,3.29-14.27,.09-28.54,.09-42.82,.18"/><line class="cls-4" x1="99.17" y1="16.3" x2="84.26" y2="37.62"/><path class="cls-4" d="M275.37,100.01c-1.01-1.1-8.51-9.51-5.95-21.59,2.74-12.9,10.8-16.83,10.8-16.83"/><path class="cls-4" d="M342.34,90.41c.09,.37,.09,.82,.18,1.28-.82,.64-21.5,1.28-39.34,1.65-11.71,.27-22.14,.46-24.98,.55h-.73v.18"/><path class="cls-4" d="M342.34,85.19c-.18,.46-.18,.82-.09,1.28-.09,.37-.09,.73-.09,1.19"/><path class="cls-4" d="M346,74.76c-.64,.82-1.46,2.01-2.1,3.38-.64,1.46-1.19,3.29-1.46,5.49"/><path class="cls-4" d="M347.47,73.21l-1.19,1.19"/><path class="cls-4" d="M243.54,57.11l36.69,4.48s3.57,2.01,4.57,2.93c.18,.18,2.38,.55,5.95,1.1,5.4,.82,14.09,2.01,22.96,3.2,16.56,2.1,34.03,4.21,34.03,4.21"/><polyline class="cls-4" points="237.77 100.75 275.37 100.11 275.47 100.11"/><path class="cls-4" d="M284.8,64.52c-1.56,1.01-4.48,3.02-6.77,6.68-.91,1.37-2.65,4.57-3.11,8.87-.46,3.84,.27,6.77,.91,9.24,.55,2.2,1.1,3.38,1.65,4.57"/><path class="cls-4" d="M278.21,93.88l-2.84,6.13v.09l-12.08,26.26,7.41,1.1,28.73,4.48s1.83,.46,3.38-.64,39.25-28.36,39.25-28.36l2.38-5.58s-1.56-3.48-2.1-6.95c-.09-.82-.18-1.65-.18-2.38v-.37c0-.37,.09-.73,.09-1.19s0-.82,.09-1.28c0-.46,0-1.01,.09-1.56,.18-1.74,.55-3.66,1.46-5.49,.46-1.19,1.19-2.47,2.1-3.38,.09-.18,.18-.27,.27-.37,.37-.46,.73-.82,1.19-1.19,.09,0,.18-.09,.27-.18,0,0,1.83-2.29,4.3-3.29,.37-2.1-16.74-29.18-16.74-29.18,0,0-14.36-.55-24.34-.64-5.12-.09-9.06-.09-9.24,.18-.55,.82-10.98,25.52-10.98,25.52"/><polyline class="cls-4" points="303.19 93.34 298.25 105.78 270.71 127.46"/><polyline class="cls-4" points="310.96 39.91 317.73 58.3 313.71 68.82"/><path class="cls-4" d="M355.15,71.01c8.14,3.48,29.09,12.26,29.92,12.81l.55,.37s.55,.37,.91,.82c.55,.64,1.56,2.65,.82,4.48-.37,.82-.91,1.37-1.46,1.83-.73,.73-1.37,1.1-1.56,1.19-1.37,.64-2.65,.64-3.02,.64-3.48,.09-23.6,2.56-32.57,3.66-2.65,.37-4.3,.55-4.3,.55"/><path class="cls-4" d="M352.04,69.73c.37,.09,1.46,.55,3.02,1.28"/><path class="cls-4" d="M163.49,38.9s-18.39,.64-23.88,.64h-1.01"/><polyline class="cls-4" points="108.78 1.03 110.33 4.59 100.09 14.57 99.81 14.84"/><line class="cls-4" x1="97.71" y1="44.39" x2="78.31" y2="71.2"/><path class="cls-4" d="M75.57,48.42c1.74-.18,3.66-.46,4.85,.82,1.1,1.19,1.19,3.29,.27,5.12-1.56,2.84-3.57,4.39-4.67,5.21-1.65,1.1-4.21,2.84-6.77,2.01-.91-.27-1.65-.91-2.01-1.28-.27-.46-.73-1.19-.82-2.1-.18-1.28,.18-2.38,.55-3.2,1.01-2.47,2.74-3.84,3.29-4.3,2.38-1.92,4.85-2.29,5.31-2.29Z"/><path class="cls-4" d="M104.48,36.8s-4.67-1.65-3.93-5.31c.82-3.66,3.02-4.39,7.04-4.48"/><path class="cls-4" d="M63.22,95.07c-2.1-.27-3.84-1.83-4.21-3.75-.27-1.65,.37-3.38,1.46-4.3,.64-.46,1.37-.64,2.84-1.01,1.56-.37,3.29-.46,3.48-.46"/><path class="cls-4" d="M41.9,75.04s-3.02,8.14-2.38,10.34"/><path class="cls-4" d="M212.61,89.58c-.18-.73,.27-1.37,1.01-1.56,.73-.09,1.46,.37,1.56,1.1,.18,.73-.27,1.37-1.01,1.56-.73,.09-1.46-.37-1.56-1.1Z"/><path class="cls-4" d="M207.4,89.77c-.18-.73,.27-1.37,1.01-1.56,.73-.09,1.37,.37,1.56,1.1,.09,.64-.37,1.37-1.01,1.46-.73,.18-1.46-.27-1.56-1.01Z"/><path class="cls-4" d="M202.64,89.86c-.09-.82,.37-1.56,1.1-1.65,.82-.18,1.56,.37,1.65,1.1,.18,.73-.37,1.46-1.1,1.65-.73,.09-1.46-.37-1.65-1.1Z"/><path class="cls-4" d="M355.15,71.01h-.09c-6.68,6.04-8.23,10.89-8.33,14.36-.09,4.12,1.74,10.43,2.01,11.44,.09,.09,.09,.18,.09,.18"/><path class="cls-4" d="M245.28,91.87c-.09-.73,.37-1.46,1.1-1.56,.73-.18,1.37,.27,1.56,1.01,.09,.73-.37,1.46-1.1,1.56-.73,.18-1.37-.27-1.56-1.01Z"/><path class="cls-4" d="M250.67,91.78c-.18-.73,.37-1.37,1.1-1.56,.64-.09,1.37,.37,1.56,1.1,.09,.73-.37,1.37-1.1,1.56-.73,.09-1.37-.37-1.56-1.1Z"/><path class="cls-4" d="M229.72,57.11s-3.02,2.47-3.66,4.76l-25.52-2.84c1.28-2.01,2.47-2.93,3.29-3.48,.27-.18,1.83-1.01,1.83-1.01,0,0,8.23,.46,24.06,2.56Z"/><path class="cls-4" d="M223.78,66.62c-.64,.82-1.37,1.83-2.01,3.11-1.19,2.1-1.74,4.12-2.01,5.58-17.02-1.37-25.16-1.92-27.26-1.92,0,0,.82-2.29,1.83-4.57,1.1-2.38,2.38-4.76,3.38-4.94,8.69,.91,17.38,1.83,26.07,2.74Z"/></g></g></g></svg>