<?xml version="1.0" encoding="UTF-8"?><svg id="Layer_2" xmlns="http://www.w3.org/2000/svg" viewBox="0 0 63.2 85.8"><defs><style>.cls-1{fill:#fff;}.cls-2{fill:#b27c74;}.cls-3{fill:#c7a158;}.cls-4{fill:#cb572b;}.cls-5{fill:#d6ad5f;}.cls-6{fill:#2075bc;}.cls-7,.cls-8{fill:#231f20;}.cls-9{fill:#58595b;}.cls-8,.cls-10,.cls-11,.cls-12{stroke-linecap:round;stroke-linejoin:round;}.cls-8,.cls-10,.cls-12,.cls-13{stroke:#231f20;}.cls-8,.cls-11,.cls-12{stroke-width:.5px;}.cls-10,.cls-11,.cls-12,.cls-13{fill:none;}.cls-10,.cls-13{stroke-width:.25px;}.cls-11{stroke:#010101;}.cls-13{stroke-miterlimit:10;}</style></defs><g id="Layer_1-2"><g><g><path class="cls-9" d="M54.54,60.85h.02c.24,.37,.47,.76,.74,1.18,.2,.33,.41,.65,.41,.65,.24,.37,.43,.67,.58,.9,.14-.08,.33-.17,.58-.27,.29-.14,3.64-1.55,5.23,.08,.76,.76,.85,1.73,.85,1.73,0,.13,.06,.98-.45,1.75-.6,.87-1.62,1.13-2,1.24-1.76,.55-5.18,1.77-9.76,3.41-.68-1.97-1.31-3.85-1.88-5.59,0,0,2.04-.41,2.93-1.42,.91-.99,.13-2.35,.13-2.35l2.62-1.3Z"/><path class="cls-9" d="M35.75,76.75c.18,.92,.38,1.85,.57,2.82,0,0,2.81-1.52,4.64-.66,1.14,.52,1.53,1.82,1.6,2.05,.1,.32,.41,1.4-.12,2.2-.44,.69-1.18,.63-4.05,1.12-3.95,.69-2.84,.42-4.02,.67-2.45,.48-3.22,.86-4.03,.35-.53-.33-.73-.88-1.03-1.75-.27-.78-.37-1.52-.31-3.4h.13c.34,.07,1.14,.13,1.95-.3,.25-.14,1.22-.66,1.4-1.67,.05-.31,.02-.55-.02-.72,.15-.04,.32-.1,.47-.13,.98-.27,1.91-.44,2.81-.59Z"/><path class="cls-6" d="M41.12,49.84c-4.07-.86-8.73-1.83-8.73-1.83-.48,.24-.97,.49-1.47,.75-1.1,.56-2.13,1.14-3.12,1.71,.83,2.03,1.73,3.44,2.42,4.39,.37,.5,.95,1.23,1.46,2.4,.46,1.07,.6,1.95,.66,2.27,.31,1.75,1.61,8.18,3.41,17.23-.89,.15-1.83,.32-2.81,.59-.15,.04-.32,.1-.47,.13,.04,.17,.07,.41,.02,.72-.18,1.01-1.15,1.53-1.4,1.67-.81,.43-1.61,.36-1.95,.31h-.13c0-.16,.01-.32,.01-.49,.05-1.17,.05-1.75,.13-2.51,.41-4.31,.03-9.04-.04-10.49-.08-1.89-.23-3.81-.72-5.64-.55-1.94-1.48-3.76-2.41-5.56-1.44-2.77-2.85-5.53-4.29-8.3l.13-.06c1.49-.58,3.22-1.37,5.07-2.46,1.72-1.03,3.14-2.09,4.33-3.07l.15-.08c.09,.19,.2,.4,.29,.6,.29,.58,.58,1.16,.87,1.72,.88,.18,1.58,.35,2.04,.45,2.34,.52,2.31,.49,2.36,.52,1.56,.34,3.13,.69,4.72,.74,1.15,.06,2.36-.01,3.35,.56,.76,.46,1.24,1.24,1.7,1.99,.65,1.02,1.64,2.71,3.26,5.35,0,0,.74,1.3,4.6,7.41h-.02s-2.62,1.3-2.62,1.3c0,0,.78,1.36-.13,2.35-.89,1.01-2.93,1.42-2.93,1.42-2.31-6.92-3.86-11.78-4.4-13.25-.27-.72-.56-1.49-1.15-1.99-.61-.52-1.41-.69-2.18-.85Z"/><path class="cls-1" d="M19.01,25.45c2.78-1.03,3.54-2.71,3.54-2.71l.04-.07c1.95,1.3,3.08,1.42,3.69,1.33,.06-.01,.71-.09,1.56-.22,.65-.1,1.43-.22,2.4-.38,0,0,.56-.07,1.44-.07v.11c.26,.56,.55,1.34,.71,2.27,.16,.91,.17,1.7,.13,2.3v.11c-1.73,.02-3.52,.33-5.42,.98,.89,3.94,2.26,8.12,4.29,12.41l-.15,.08c-1.18,.98-2.61,2.04-4.33,3.07-1.85,1.09-3.58,1.88-5.07,2.46l-.13,.06c-.12-.25-.26-.48-.38-.73-.63-1.22-1.27-2.46-1.99-3.65-.75-1.23-1.58-2.41-2.47-3.53-1.45-1.87-3.09-3.63-4.15-5.74l-.14-.22c-1.04,.64-2.5,1.68-3.91,3.31-1.28-.57-3.25-3.85-3.25-3.85,.35-.38,.74-.78,1.16-1.18,.95-.85,2.09-2,3.94-2.85,1.61-.75,2.44-.72,3.24-1.57,.45-.5,.72-1.1,.87-1.7,.23,.11,1.81,.92,4.4-.02Z"/><path class="cls-5" d="M51.48,34.76c-.74-.11-1.24-.79-1.44-1.1,.11,.19,.49,.76,.71,1.26,.05,.08,.1,.23,.07,.39-.05,.16-.19,.29-.33,.35-.25,.08-.51-.05-.65-.12-1.28-.52-2.91-1.93-2.97-1.95-1.62-1.47-2.87-2.2-2.87-2.2-.16-.09-.4-.22-.73-.39h-.02c-3.71-1.83-7.13-2.95-10.74-2.88v-.11c.04-.6,.03-1.39-.14-2.3-.16-.93-.45-1.71-.7-2.27v-.11s.1,0,.16,0c6.29,.04,10.96,2.74,13.13,4.23,.07,.04,.17,.11,.27,.19,.1,.05,.22,.13,.36,.2,1.77,1.1,1.52,.89,1.83,1.09,.59,.35,.78,.46,.96,.48,.04,0,.07,0,.13,0,.41-.05,.51-.37,.85-.57,.19-.11,.5-.09,1.09-.09,.31,.01,.58,.02,.74,.06,.6,.08,.99,.32,1,.6,.03,.28-.38,.51-.56,.6-.68,.41-1.38,.28-1.39,.37-.01,.13,1.32,.12,2.35,.97,.12,.1,.84,.69,.66,1.07-.12,.26-.42,.36-.7,.39-.91,.13-1.7-.39-1.74-.31-.07,.1,1.11,.81,1.33,1.64,.06,.15,.06,.3-.02,.4-.13,.19-.51,.13-.65,.12Z"/><path class="cls-1" d="M17.58,11.15c.4-.2,.83-.28,1.27-.29,.13,0,.26,0,.36,.04,.19,.07,.35,.2,.48,.34,.28,.29,.59,.63,.57,1.03-.02,.42-.42,.74-.81,.94-.33,.17-.65,.3-.99,.39-.15,.04-.32,.08-.46,.04-.18-.05-.33-.22-.42-.37-.38-.62-.36-1.47,.03-2.07l-.03-.06Z"/><path class="cls-3" d="M15.67,12.2c.27-.36,.98-1.13,2.14-1.57,1.24-.48,2.32-.31,2.77-.23,.07,.23,.48,1.42-.15,2.55-.11,.23-.47,.87-1.25,1.13-.88,.33-1.66-.04-1.94-.18-1.05-.49-1.46-1.43-1.56-1.7Zm3.18-1.34c-.44,0-.87,.09-1.27,.29l.03,.06c-.39,.6-.4,1.44-.03,2.07,.09,.16,.24,.32,.42,.37,.14,.03,.31,0,.46-.04,.34-.09,.66-.22,.99-.39,.39-.2,.79-.52,.81-.94,.02-.4-.29-.74-.57-1.03-.13-.14-.28-.27-.48-.34-.11-.03-.23-.04-.36-.04Z"/><path class="cls-4" d="M18.57,19.77c-1.09,1.17-2.6,1.1-2.88,1.09-.6-.03-1.13-.19-1.57-.42,.45-.28,1.22-.64,2.24-.78,.95-.14,1.72,0,2.2,.1Z"/><path class="cls-3" d="M20.73,21.27c.69,.58,1.32,1.03,1.87,1.4l-.04,.07s-.76,1.68-3.54,2.71c-2.59,.94-4.17,.14-4.4,.02,.17-.72,.17-1.47,.12-2.09v-.05c1.1,.19,2.39,.17,3.69-.39,.98-.41,1.7-1.03,2.24-1.71l.05,.04Z"/><path class="cls-1" d="M20.43,12.95c.63-1.13,.22-2.32,.15-2.55-.45-.08-1.53-.25-2.77,.23-1.16,.45-1.86,1.22-2.14,1.57,.1,.27,.52,1.21,1.56,1.7,.28,.14,1.06,.51,1.94,.18,.78-.27,1.14-.91,1.25-1.13Zm-5.32-.95c.3-.43,1.11-1.39,2.54-1.93,1.54-.59,2.91-.34,3.39-.22,.1,.23,.68,1.72-.09,3.16-.16,.28-.6,1.07-1.58,1.43-1.14,.41-2.17-.11-2.46-.25-.91-.44-1.4-1.21-1.62-1.7-.1-.23-.16-.4-.19-.48Z"/><path class="cls-2" d="M13.2,19.67c2.04-.83,4.09-1.65,6.13-2.46l.17-.02c.03,.95-.29,1.89-.92,2.58-.48-.1-1.26-.24-2.2-.1-1.02,.13-1.79,.49-2.24,.78h-.02c-.38-.21-.69-.44-.96-.67l.05-.1Z"/><path class="cls-1" d="M19.33,17.21c-2.04,.81-4.09,1.63-6.13,2.46l-.05,.1c-.54-.48-.82-.96-.86-1.04,2.33-.91,4.65-1.81,6.96-2.72,.13,.38,.21,.79,.24,1.18l-.17,.02Z"/><path class="cls-1" d="M15.3,12.47c-.67,.28-1.32,.54-1.97,.82h-.02c-.07-.25-.14-.44-.17-.5,.65-.26,1.32-.54,1.97-.8,.03,.08,.08,.25,.19,.48Z"/><path class="cls-1" d="M9.21,15.27c.02-.2,.02-.4,.13-.57,.05-.1,.15-.19,.23-.27,.3-.28,.67-.5,1.05-.64,.22,.04,.59,.17,.94,.5,.08,.08,.48,.47,.57,1.05,.06,.35-.04,.53-.06,.56-.09,.14-.22,.21-.36,.29-.31,.15-.65,.28-.99,.37-.43,.1-.93,.14-1.25-.16-.28-.29-.29-.73-.27-1.13Z"/><path class="cls-3" d="M10.62,13.78c-.38,.14-.75,.36-1.05,.64-.08,.08-.18,.16-.23,.27-.11,.17-.11,.37-.13,.57-.02,.4-.01,.84,.27,1.13,.32,.31,.81,.27,1.25,.16,.34-.09,.68-.22,.99-.37,.14-.08,.27-.16,.36-.29,.02-.03,.11-.21,.06-.56-.09-.58-.49-.97-.57-1.05-.35-.33-.72-.46-.94-.5Zm-1.22,2.97c-1.05-.49-1.44-1.45-1.56-1.72,.29-.35,.97-1.11,2.14-1.56,1.24-.48,2.32-.33,2.77-.23,.07,.21,.5,1.41-.15,2.55-.11,.23-.47,.87-1.23,1.14-.88,.33-1.68-.06-1.96-.18Z"/><path class="cls-1" d="M13.31,13.29c.16,.6,.29,1.66-.27,2.66-.14,.28-.6,1.07-1.56,1.43-1.16,.41-2.19-.1-2.46-.25-1.31-.65-1.72-1.92-1.83-2.18,.32-.42,1.13-1.38,2.56-1.93,1.54-.59,2.89-.34,3.39-.22,.03,.06,.1,.25,.17,.49Zm-5.47,1.74c.12,.27,.51,1.22,1.56,1.72,.28,.12,1.08,.51,1.96,.18,.76-.27,1.12-.91,1.23-1.14,.65-1.14,.22-2.34,.15-2.55-.45-.1-1.53-.25-2.77,.23-1.16,.45-1.84,1.2-2.14,1.56Z"/><path class="cls-5" d="M14.11,20.44h.02c.43,.23,.97,.39,1.57,.42,.27,0,1.79,.07,2.88-1.09,.64-.68,.95-1.62,.92-2.58-.03-.39-.12-.8-.24-1.18-2.31,.92-4.63,1.81-6.96,2.72,.05,.08,.33,.56,.86,1.04,.27,.23,.57,.46,.96,.67Zm5.27-6.01c.97-.36,1.42-1.15,1.58-1.43,.77-1.44,.19-2.93,.09-3.16l.2-.2c.7,.69,1.24,1.5,1.59,2.36,1.12,2.84-.21,5.76-.63,6.67-.29,.67-.74,1.64-1.53,2.55-.55,.68-1.27,1.3-2.24,1.71-1.3,.56-2.59,.58-3.68,.39-1.19-.2-2.17-.63-2.76-.89-.91-.39-3.38-1.47-4.5-3.91-.48-1.06-.68-2.3-.58-3.59h.29c.1,.28,.52,1.55,1.83,2.2,.28,.16,1.3,.67,2.46,.25,.95-.36,1.42-1.15,1.56-1.43,.56-1,.43-2.06,.27-2.66h.02c.65-.28,1.3-.54,1.97-.82,.22,.5,.71,1.26,1.62,1.7,.3,.14,1.32,.67,2.46,.25Z"/><path class="cls-5" d="M6.9,14.94c.17-2.91,1.83-6,4.98-7.34,3.39-1.44,7.15-.23,9.36,2.04l-.2,.2c-.48-.12-1.85-.37-3.39,.22-1.43,.55-2.24,1.51-2.54,1.93-.65,.26-1.32,.54-1.97,.8-.5-.12-1.85-.37-3.39,.22-1.43,.55-2.24,1.51-2.56,1.93h-.29Z"/><path class="cls-5" d="M.66,48.13c-.04-2.31,.22-4.24,.49-5.68,.32-1.65,.67-3.5,1.74-5.72,.49-.99,1.23-2.47,2.51-3.95,0,0,1.97,3.28,3.25,3.85-.54,.62-1.07,1.32-1.57,2.11-1.93,3.08-2.38,6.02-2.51,7.52-.05,.27-.08,.6-.1,1-.02,.53,.02,.92,.07,1.44,.09,.94,.18,1.08,.25,1.16,.18,.22,.33,.2,.77,.48,.29,.18,.48,.34,.81,.67,.35,.31,.85,.8,1.38,1.52-.24,.16-.5,.26-.78,.29-.09,0-.41,.05-.82-.08-.75-.22-1.02-.76-1.15-.7-.16,.11,.4,.96,.45,2.24,0,.31,.04,1.07-.29,1.2-.27,.1-.63-.25-.72-.33-.68-.64-.62-1.6-.79-1.6s-.18,1.19-.82,1.93c-.25,.3-.38,.29-.43,.27-.12-.03-.2-.22-.22-.33-.23-.83-.13-1.75-.19-1.76s-.09,.54-.46,1.07c-.13,.17-.43,.61-.75,.56-.18-.02-.29-.18-.34-.24-.18-.24-.19-.5-.19-.61,0-1.1,.22-2.82,.29-3.49,.04-.42,.09-.67,.12-.98,.01-.14,.03-.33,.04-.53,.01-.31,.04-.75-.03-1.3Z"/></g><g><path class="cls-11" d="M14.74,23.38c.05,.63,.04,1.38-.12,2.09-.15,.61-.42,1.2-.87,1.7-.8,.85-1.62,.82-3.24,1.57-1.85,.85-2.99,2-3.94,2.85-.43,.4-.81,.79-1.16,1.18-1.29,1.48-2.03,2.96-2.51,3.95-1.07,2.21-1.43,4.06-1.74,5.72-.28,1.44-.53,3.37-.49,5.68,0,.42,0,.84,.03,1.3"/><path class="cls-11" d="M13.23,32.93c-.19,.11-.41,.23-.66,.39-1.04,.64-2.5,1.68-3.91,3.31-.54,.62-1.07,1.32-1.57,2.11-1.93,3.08-2.38,6.02-2.51,7.52"/><path class="cls-11" d="M12.71,33.53c1.06,2.11,2.7,3.87,4.15,5.74,.89,1.12,1.72,2.3,2.47,3.53,.72,1.19,1.36,2.43,1.99,3.65,.12,.25,.26,.48,.38,.73,1.44,2.77,2.85,5.53,4.29,8.3,.93,1.8,1.86,3.61,2.41,5.56,.49,1.83,.64,3.75,.72,5.64,.07,1.45,.44,6.18,.04,10.49-.08,.76-.08,1.35-.13,2.51,0,.16-.02,.33-.01,.47-.07,1.88,.04,2.62,.31,3.4,.29,.87,.49,1.42,1.03,1.75,.81,.5,1.58,.13,4.03-.35,1.18-.24,.07,.03,4.02-.67,2.87-.49,3.61-.43,4.05-1.12,.52-.81,.21-1.88,.12-2.2-.07-.23-.46-1.53-1.6-2.05-1.83-.87-4.64,.66-4.64,.66-.19-.97-.39-1.91-.57-2.82-1.8-9.05-3.09-15.48-3.41-17.23-.06-.32-.21-1.19-.66-2.27-.5-1.17-1.09-1.91-1.46-2.4-.69-.95-1.59-2.36-2.42-4.39,.99-.58,2.02-1.15,3.12-1.71,.5-.26,.99-.5,1.47-.75,0,0,4.66,.97,8.73,1.83,.77,.15,1.58,.33,2.18,.85,.59,.5,.88,1.26,1.15,1.99,.54,1.47,2.09,6.33,4.4,13.25,.57,1.74,1.2,3.62,1.88,5.59"/><path class="cls-11" d="M50.73,71.52c4.58-1.63,8-2.86,9.76-3.41,.38-.11,1.39-.37,2-1.24,.52-.77,.46-1.62,.45-1.75,0,0-.08-.98-.85-1.73-1.59-1.63-4.94-.22-5.23-.08-.25,.1-.44,.19-.58,.27-.16-.24-.35-.53-.58-.9,0,0-.21-.31-.41-.65-.27-.41-.5-.8-.74-1.17-3.86-6.11-4.6-7.41-4.6-7.41-1.61-2.64-2.61-4.33-3.26-5.35-.45-.74-.94-1.52-1.7-1.99-.98-.58-2.2-.5-3.35-.56-1.59-.05-3.16-.4-4.72-.74-.05-.02-.02,0-2.36-.52-.47-.1-1.16-.27-2.04-.45"/><path class="cls-11" d="M27.1,29.1c.89,3.94,2.26,8.12,4.29,12.41,.09,.19,.2,.4,.29,.6,.29,.58,.58,1.16,.87,1.72"/><path class="cls-11" d="M44.98,27.56c-2.17-1.49-6.84-4.18-13.13-4.23-.05,0-.11,0-.16,0-.88,0-1.44,.07-1.44,.07-.97,.16-1.75,.28-2.4,.38-.86,.13-1.5,.21-1.56,.22-.61,.08-1.74-.03-3.69-1.33-.55-.37-1.18-.82-1.87-1.4"/><path class="cls-11" d="M43.28,31.01c.09,.03,.16,.07,.24,.12"/><path class="cls-11" d="M26.62,29.25c.15-.06,.32-.11,.47-.15,1.9-.65,3.69-.96,5.43-.98,3.61-.07,7.03,1.05,10.74,2.88"/><path class="cls-11" d="M21.83,47.12c1.49-.58,3.22-1.37,5.07-2.46,1.72-1.03,3.14-2.09,4.33-3.07"/><path class="cls-11" d="M4.57,46.26c-.05,.27-.08,.6-.1,1-.02,.53,.02,.92,.07,1.44,.09,.94,.18,1.08,.25,1.16,.18,.22,.33,.2,.77,.48,.29,.18,.48,.34,.81,.67,.35,.31,.85,.8,1.38,1.52-.24,.16-.5,.26-.78,.29-.09,0-.41,.05-.82-.08-.75-.22-1.02-.76-1.15-.7-.16,.11,.4,.96,.45,2.24,0,.31,.04,1.07-.29,1.2-.27,.1-.63-.25-.72-.33-.68-.64-.62-1.6-.79-1.6s-.18,1.19-.82,1.93c-.25,.3-.38,.29-.43,.27-.12-.03-.2-.22-.22-.33-.23-.83-.13-1.75-.19-1.76s-.09,.54-.46,1.07c-.13,.17-.43,.61-.75,.56-.18-.02-.29-.18-.34-.24-.18-.24-.19-.5-.19-.61,0-1.1,.22-2.82,.29-3.49,.04-.42,.09-.67,.12-.98,.01-.14,.03-.33,.04-.53,.01-.31,.04-.75-.03-1.3"/><path class="cls-11" d="M44.98,27.56c.07,.04,.17,.11,.27,.19,.1,.05,.22,.13,.36,.2,1.77,1.1,1.52,.89,1.83,1.09,.59,.35,.78,.46,.96,.48,.04,0,.07,0,.13,0,.41-.05,.51-.37,.85-.57,.19-.11,.5-.09,1.09-.09,.31,.01,.58,.02,.74,.06,.6,.08,.99,.32,1,.6,.03,.28-.38,.51-.56,.6-.68,.41-1.38,.28-1.39,.37-.01,.13,1.32,.12,2.35,.97,.12,.1,.84,.69,.66,1.07-.12,.26-.42,.36-.7,.39-.91,.13-1.7-.39-1.74-.31-.07,.1,1.11,.81,1.33,1.64,.06,.15,.06,.3-.02,.4-.13,.19-.51,.13-.65,.12-.74-.11-1.24-.79-1.44-1.1,.11,.19,.49,.76,.71,1.26,.05,.08,.1,.23,.07,.39-.05,.16-.19,.29-.33,.35-.25,.08-.51-.05-.65-.12-1.28-.52-2.91-1.93-2.97-1.95-1.62-1.47-2.87-2.2-2.87-2.2-.16-.09-.4-.22-.73-.39h-.02"/><path class="cls-12" d="M35.75,76.75c-.89,.15-1.83,.32-2.81,.59-.15,.04-.32,.1-.47,.13,.04,.17,.07,.41,.02,.72-.18,1.01-1.15,1.53-1.4,1.67-.81,.43-1.61,.36-1.95,.31"/><path class="cls-12" d="M54.54,60.85l-2.62,1.3s.78,1.36-.13,2.35c-.89,1.01-2.93,1.42-2.93,1.42"/><path class="cls-11" d="M5.41,32.78s1.97,3.28,3.25,3.85"/><path class="cls-11" d="M31.69,23.44c.25,.56,.54,1.34,.7,2.27,.16,.91,.17,1.7,.13,2.3"/><path class="cls-10" d="M14.11,20.44c-.38-.2-.69-.44-.96-.67-.54-.48-.82-.96-.86-1.04,2.33-.91,4.65-1.81,6.96-2.72,.13,.38,.21,.79,.24,1.18,.03,.95-.29,1.89-.92,2.58-1.09,1.17-2.6,1.1-2.88,1.09-.6-.03-1.13-.19-1.57-.42"/><path class="cls-10" d="M13.2,19.67c2.04-.83,4.09-1.65,6.13-2.46"/><path class="cls-10" d="M14.11,20.44h.02c.45-.28,1.22-.64,2.24-.77,.95-.14,1.72,0,2.2,.1"/><path class="cls-10" d="M7.19,14.95c.32-.42,1.13-1.38,2.56-1.93,1.54-.59,2.89-.34,3.39-.22,.03,.06,.1,.25,.17,.49,.16,.6,.29,1.66-.27,2.66-.14,.28-.6,1.07-1.56,1.43-1.16,.41-2.19-.1-2.46-.25-1.31-.65-1.72-1.92-1.83-2.18Z"/><path class="cls-12" d="M14.6,25.45l.02,.02c.23,.11,1.81,.92,4.4-.02,2.78-1.03,3.54-2.71,3.54-2.71"/><path class="cls-12" d="M6.9,14.94c-.1,1.29,.1,2.54,.58,3.59,1.12,2.44,3.59,3.52,4.5,3.91,.6,.26,1.58,.69,2.76,.89,1.1,.19,2.38,.17,3.68-.39,.98-.41,1.7-1.03,2.24-1.71,.79-.91,1.24-1.89,1.53-2.55,.42-.91,1.75-3.83,.63-6.67-.35-.86-.89-1.67-1.59-2.36-2.22-2.28-5.97-3.49-9.36-2.04-3.16,1.34-4.81,4.43-4.98,7.34Z"/><path class="cls-10" d="M13.14,12.8c.65-.26,1.32-.54,1.97-.8"/><path class="cls-10" d="M16.66,11.68c.28-.23,.59-.41,.91-.53,.4-.2,.83-.28,1.27-.29,.13,0,.26,0,.36,.04,.19,.07,.35,.2,.48,.34,.28,.29,.59,.63,.57,1.03-.02,.42-.42,.74-.81,.94-.33,.17-.65,.3-.99,.39-.15,.04-.32,.08-.46,.04-.18-.05-.33-.22-.42-.37-.38-.62-.36-1.47,.03-2.07"/><path class="cls-10" d="M15.11,11.99c.3-.43,1.11-1.39,2.54-1.93,1.54-.59,2.91-.34,3.39-.22,.1,.23,.68,1.72-.09,3.16-.16,.28-.6,1.07-1.58,1.43-1.14,.41-2.17-.11-2.46-.25-.91-.44-1.4-1.21-1.62-1.7-.1-.23-.16-.4-.19-.48Z"/><path class="cls-10" d="M7.84,15.04c.29-.35,.97-1.11,2.14-1.56,1.24-.48,2.32-.33,2.77-.23,.07,.21,.5,1.41-.15,2.55-.11,.23-.47,.87-1.23,1.14-.88,.33-1.68-.06-1.96-.18-1.05-.49-1.44-1.45-1.56-1.72Z"/><path class="cls-10" d="M15.67,12.2c.27-.36,.98-1.13,2.14-1.57,1.24-.48,2.32-.31,2.77-.23,.07,.23,.48,1.42-.15,2.55-.11,.23-.47,.87-1.25,1.13-.88,.33-1.66-.04-1.94-.18-1.05-.49-1.46-1.43-1.56-1.7Z"/><path class="cls-10" d="M10.62,13.78c-.38,.14-.75,.36-1.05,.64-.08,.08-.18,.16-.23,.27-.11,.17-.11,.37-.13,.57-.02,.4-.01,.84,.27,1.13,.32,.31,.81,.27,1.25,.16,.34-.09,.68-.22,.99-.37,.14-.08,.27-.16,.36-.29,.02-.03,.11-.21,.06-.56-.09-.58-.49-.97-.57-1.05-.35-.33-.72-.46-.94-.5Z"/><path class="cls-10" d="M11.75,13.55c-.39,.02-.76,.09-1.12,.23"/><path class="cls-13" d="M13.33,13.29c.65-.28,1.3-.54,1.97-.82"/></g></g><path class="cls-7" d="M8.46,13.09c.28-.24,.68-.32,1.04-.41,.38-.09,.77-.15,1.15-.27,.34-.11,.68-.25,.96-.47,.14-.11,.27-.23,.36-.38s.12-.33,.14-.5c.03-.19-.22-.33-.33-.14-.08,.13-.2,.22-.3,.32s-.22,.22-.35,.31c-.3,.21-.65,.31-.99,.43s-.68,.23-.99,.41c-.28,.17-.5,.42-.69,.68,0,.01,0,.02,.02,.01h0Z"/><path class="cls-7" d="M18.46,9.21c-.33-.07-.66-.12-.99-.05-.36,.07-.7,.22-1.03,.37-.31,.13-.62,.27-.95,.32-.16,.02-.31,.02-.47,.01s-.33,0-.49-.04-.31,.19-.17,.3c.28,.23,.54,.37,.91,.36s.71-.12,1.04-.27,.66-.34,.99-.52c.34-.2,.75-.45,1.16-.45,.01,0,.02-.02,0-.02h0Z"/><path class="cls-7" d="M15.39,14.39c.03,.09,.06,.16,.12,.24,.05,.06,.1,.13,.15,.2,.1,.15,.16,.31,.2,.49,.04,.17,.01,.35-.04,.51-.03,.09-.08,.16-.13,.24-.04,.07-.12,.15-.14,.23,0,.04,.02,.07,.05,.07,.09,0,.2-.08,.27-.14,.09-.07,.16-.17,.22-.27,.13-.2,.2-.44,.2-.68,0-.26-.09-.5-.25-.7-.14-.18-.34-.35-.59-.28-.04,.01-.07,.06-.06,.1h0Z"/><path class="cls-8" d="M5.82,13.6c-.29-2.91,.67-4.91,.67-4.91,.29-.6,.99-2.01,2.51-2.98,.62-.4,.83-.37,3.35-1.15,3.1-.95,3.63-1.24,4.1-1.68,.85-.79,1.24-1.8,1.43-2.64,.37,.34,.87,.86,1.35,1.6,.61,.95,1.15,1.81,1.05,2.96-.14,1.56-1.37,2.49-1.57,2.63-.62,.45-1.22,.6-1.55,.67-.56,.12-3.25,.71-5.27,1.6-.36,.16-.65,.31-.87,.42-.55,.29-.96,.56-1.25,.75-.32,.21-.48,.32-.67,.46-.29,.22-.9,.7-1.4,1.51-.15,.24-.56,.93-.7,1.9-.09,.66-.03,1.21-.18,1.24-.09,.02-.22-.17-.34-.41-.56-1.06-.66-1.98-.66-1.98Z"/></g></svg>