<?xml version="1.0" encoding="UTF-8"?><svg id="Layer_2" xmlns="http://www.w3.org/2000/svg" viewBox="0 0 36.18 44.5"><defs><style>.cls-1{fill:#eaf6f9;}.cls-2{fill:#fff;}.cls-3{fill:#7fa9ab;}.cls-4{fill:#b4b4b4;}.cls-5{fill:#b57b4c;}.cls-6{fill:#a3dadd;}.cls-7{fill:#185279;}.cls-8{stroke:#010101;stroke-linecap:round;stroke-linejoin:round;}.cls-8,.cls-9{fill:none;stroke-width:.5px;}.cls-9{stroke:#231f20;stroke-miterlimit:10;}</style></defs><g id="Layer_1-2"><g><g><path class="cls-5" d="M34.13,29.84c.81,.03,1.81,.44,1.8,1.25-.01,.31-.17,.59-.36,.84-1.35,1.81-3.77,2.35-6,2.74l-.02-.09c-1.05-2.61-2.19-5.2-3.41-7.74l.04-.02c.38-.89,1.06-1.66,1.89-2.15,1.15,1.49,2.29,2.98,3.43,4.47,.22,.28,.44,.66,.27,.96,.76-.21,1.56-.3,2.36-.26Z"/><path class="cls-1" d="M24.03,10.95c.06-.05,.12-.08,.19-.08,.11-.01,.22,.06,.31,.12,.28,.19,.56,.38,.83,.57,.19,.12,.4,.25,.62,.2,.16-.04,.28-.18,.44-.23,.19-.06,.39-.01,.58-.05,.38-.07,.7-.48,1.07-.37,.02,.3-.11,.61-.35,.8-.23,.2-.55,.27-.85,.2,.51,.07,.99,.27,1.45,.48,.23,.11,.5,.32,.42,.56-.05,.14-.21,.21-.36,.24-.32,.08-.66,.05-.97-.07,.4,.15,.71,.55,.75,.98,0,.08,0,.17-.06,.22s-.15,.04-.23,.02c-.18-.05-.34-.13-.49-.24-.09-.11-.2-.2-.32-.28,.1,.1,.2,.2,.32,.28,.07,.07,.13,.15,.18,.24,.04,.07,.07,.14,.07,.21-.01,.12-.11,.23-.23,.26s-.24,.01-.36-.03c-.63-.18-1.11-.69-1.73-.9-.32-.12-.66-.14-.99-.22-.58-.14-.84-.49-.91-.95-.05-.23-.05-.49-.02-.77,.04-.45,.24-.9,.6-1.17,0-.01,.03-.02,.04-.02Z"/><path class="cls-7" d="M28.05,24.64s.02,.02,.02,.03c-.83,.49-1.51,1.26-1.89,2.15l-.04,.02c-.35-.74-.71-1.47-1.08-2.2-.19-.38-.39-.77-.74-1.02-.36-.25-.81-.3-1.24-.34-1.62-.17-3.25-.34-4.87-.5-.25-.03-.52-.06-.77,.01-.89,.22-1.2,1.39-2.04,1.77,.69,.83,1.41,1.62,2.16,2.39,.28,.29,.57,.57,.78,.91,.23,.37,.36,.79,.49,1.2,.43,1.35,.86,2.71,1.29,4.06,0,0,0,0,0,.02,.01,.02,.02,.04,.02,.06-.02,0-.04,.02-.06,.02-.92,.23-1.76,.72-2.41,1.39-.06-.49-.13-.97-.2-1.45-.15-1.04-.34-2.07-.71-3.05-.41-1.03-1.02-1.97-1.63-2.9-.82-1.25-1.64-2.5-2.46-3.76,.78-.4,1.68-.93,2.63-1.64,.93-.69,1.69-1.4,2.28-2.03h.02c.15,.23,.3,.47,.45,.7,1.3,.15,1.16,.13,2.46,.28,.87,.1,1.75,.2,2.62,.15,.63-.04,1.29-.15,1.86,.12,.44,.2,.75,.6,1.04,.98,.68,.88,1.35,1.75,2.02,2.63Z"/><path class="cls-5" d="M23.63,40.27c.86,.13,1.44,1.09,1.32,1.95-.13,.86-.84,1.56-1.66,1.85-.82,.28-1.74,.19-2.57-.07-.89-.28-1.77-.8-2.19-1.63-.33-.65-.35-1.39-.38-2.11-.08-1.89-.23-3.78-.48-5.65,.65-.67,1.49-1.16,2.41-1.39,.02,0,.04-.01,.06-.02,.64,2.01,1.28,4.01,1.91,6.02,.11,.33,.24,.7,.54,.88,.31,.18,.69,.11,1.04,.17Z"/><path class="cls-3" d="M6.55,15.76c-2.77,1.28-4.91,4.2-3.89,7.49-.43-.12-.89,0-1.27,.21-.34,.21-.63,.44-.79,.71-.73-2.28-.24-5.69,.98-7.73,.81-1.35,5.96-3.28,5.17-5.03,1.14,.42,2.43,.48,3.61,.15,.86-.24,1.62-.68,2.26-1.24l.03,.03c.95-.42,2.27-.87,3.87-1.02,3.53-.34,6.29,.94,7.51,1.62-.01,0-.03,0-.04,.02-.36,.27-.56,.72-.6,1.17-.03,.28-.03,.54,.02,.77h-.07c-3.21-1.19-5.96-1.61-9.09-.17,.68,2.04,1.63,4.17,2.92,6.33-.76,.63-1.6,1.29-2.5,1.93-.86,.62-1.69,1.18-2.5,1.69-.03-.05-.07-.1-.1-.15-.41-.63-.83-1.27-1.29-1.88-.48-.63-1-1.22-1.55-1.79-.9-.94-1.89-1.81-2.59-2.9l-.09-.21Z"/><path class="cls-5" d="M17.6,19.77h-.02c-.59,.64-1.35,1.35-2.28,2.04-.95,.71-1.85,1.24-2.63,1.64-.17-.25-.34-.51-.5-.76,.81-.51,1.64-1.07,2.5-1.69,.9-.64,1.74-1.3,2.5-1.93,.1,.17,.2,.35,.31,.52l.12,.18Z"/><path class="cls-6" d="M15.05,3.65c.07,.15,.23,.56,.16,1l-1.61-1.39-.29-.76c.42,.01,.67,.11,.88,.23,.13,.07,.61,.35,.86,.92Z"/><path class="cls-6" d="M13.6,3.26l1.61,1.39c-.02,.13-.05,.26-.12,.39-.09,.17-.21,.3-.39,.44-.06,.05-.12,.09-.18,.12l-.92-2.34Z"/><path class="cls-4" d="M6.75,11.41c-.81-.29-1.54-.77-2.1-1.41-1-1.13-1.18-2.43-1.27-3.1-.1-.74-.42-3.14,1.24-4.96C6.09,.32,8.38-.03,10.18,.44c1.73,.45,2.76,1.6,3.13,2.06-.16,0-.34,.01-.54,.03-.57,.07-1.36,.26-2.48,.63-.28,.09-.6,.2-.94,.32-.03,.01-.06,.03-.09,.04-.62,.22-1.33,.51-2.1,.86-.11,.07-.83,.58-.9,1.48-.07,.85,.47,1.67,1.15,1.9,.39,.13,.73,.04,1.26-.12,.71-.22,1.34-.42,1.83-.59,.19-.06,.36-.12,.51-.17,.14-.05,.24-.08,.31-.11,.07-.02,.12-.04,.15-.05s.05-.02,.06-.02t.02-.01c.1-.03,.2-.07,.3-.1,1.34-.43,2.01-.52,2.67-.99l.05,.13c.02,.11,.04,.26,.05,.44,.07,1.39-.7,3.01-2,4.15-.64,.56-1.4,1-2.26,1.24-1.18,.33-2.47,.27-3.61-.15Z"/><path class="cls-6" d="M13.6,3.26l.92,2.34c-.66,.47-1.33,.56-2.67,.99,.38-.14,.76-.27,1.14-.4-1.22-.9-2.43-1.8-3.64-2.71,.34-.12,.66-.23,.94-.32,1.12-.37,1.91-.56,2.48-.63l.83,.73Z"/><path class="cls-6" d="M13.6,3.26l-.83-.73c.2-.02,.38-.03,.54-.03l.29,.76Z"/><path class="cls-2" d="M12.99,6.19c-.38,.13-.76,.26-1.14,.4-.1,.03-.2,.07-.3,.1t-.02,.01s-.04,0-.06,.02c-.03,.01-.08,.03-.15,.05-.1,.03-.21,.07-.31,.11-.15,.05-.32,.11-.51,.17-1.11-.89-2.23-1.78-3.34-2.67,.7-.29,1.4-.58,2.1-.86,.03-.01,.06-.03,.09-.04,1.21,.91,2.42,1.81,3.64,2.71Z"/><path class="cls-6" d="M11.47,6.72s.04-.02,.06-.02c-.01,0-.03,0-.06,.02Z"/><path class="cls-6" d="M11.01,6.88c.1-.04,.21-.08,.31-.11-.07,.03-.17,.06-.31,.11Z"/><path class="cls-6" d="M7.16,4.38c1.11,.89,2.23,1.78,3.34,2.67-.49,.17-1.12,.37-1.83,.59-.53,.16-.87,.25-1.26,.12-.68-.23-1.22-1.05-1.15-1.9,.07-.9,.79-1.41,.9-1.48Z"/><path class="cls-6" d="M9.26,3.52c-.7,.28-1.4,.57-2.1,.86,.77-.35,1.48-.64,2.1-.86Z"/><path class="cls-1" d="M2.02,27.94c.03-.13,.04-.27,.03-.4-.03,.13-.04,.27-.03,.4Zm.64-4.69s.02,.01,.03,.01c.08,.02,.16,.06,.22,.12,.07,.09,.08,.21,.08,.32,0,.34,.03,.68,.04,1.01,0,.22,.03,.47,.2,.62,.13,.11,.31,.13,.45,.22,.16,.11,.24,.3,.38,.43,.28,.27,.8,.28,.94,.64-.24,.2-.56,.28-.86,.21-.29-.08-.55-.3-.66-.58,.24,.46,.36,.96,.47,1.46,.05,.25,.04,.59-.2,.66-.14,.05-.3-.04-.41-.14-.25-.21-.44-.5-.52-.83,.12,.42-.02,.9-.34,1.19-.06,.06-.14,.11-.22,.09-.07-.03-.12-.11-.14-.18-.06-.17-.1-.36-.1-.55-.02,.1-.06,.2-.1,.3-.03,.07-.06,.14-.12,.18-.1,.07-.25,.04-.34-.03-.1-.08-.16-.19-.2-.31-.22-.61-.1-1.3-.29-1.92-.1-.33-.28-.62-.41-.93-.18-.43-.14-.78,.04-1.07,.16-.27,.45-.5,.79-.71,.38-.22,.84-.33,1.27-.21Z"/></g><g><path class="cls-9" d="M13.31,2.5c-.37-.46-1.4-1.61-3.13-2.06-1.8-.47-4.09-.12-5.56,1.5-1.66,1.82-1.34,4.22-1.24,4.96,.09,.67,.27,1.97,1.27,3.1,.56,.64,1.29,1.12,2.1,1.41,1.14,.42,2.43,.48,3.61,.15,.86-.24,1.62-.68,2.26-1.24,1.3-1.14,2.07-2.76,2-4.15,0-.18-.03-.33-.05-.44"/><path class="cls-8" d="M6.73,11.35s.02,.04,.02,.06c.79,1.75-4.36,3.68-5.17,5.03-1.22,2.04-1.71,5.45-.98,7.73,.01,.04,.02,.08,.03,.11"/><path class="cls-8" d="M6.89,15.61c-.12,.05-.23,.1-.34,.15-2.77,1.28-4.91,4.2-3.89,7.49,.05,.15,.1,.3,.16,.45"/><path class="cls-8" d="M6.64,15.97c.7,1.09,1.69,1.96,2.59,2.9,.55,.57,1.07,1.16,1.55,1.79,.46,.61,.88,1.25,1.29,1.88,.03,.05,.07,.1,.1,.15,.16,.25,.33,.51,.5,.76,.82,1.26,1.64,2.51,2.46,3.76,.61,.93,1.22,1.87,1.63,2.9,.37,.98,.56,2.01,.71,3.05,.07,.48,.14,.96,.2,1.45,.25,1.87,.4,3.76,.48,5.65,.03,.72,.05,1.46,.38,2.11,.42,.83,1.3,1.35,2.19,1.63,.83,.26,1.75,.35,2.57,.07,.82-.29,1.53-.99,1.66-1.85,.12-.86-.46-1.82-1.32-1.95-.35-.06-.73,.01-1.04-.17-.3-.18-.43-.55-.54-.88-.63-2.01-1.27-4.01-1.91-6.02,0-.02-.01-.04-.02-.06v-.02c-.43-1.35-.86-2.71-1.29-4.06-.13-.41-.26-.83-.49-1.2-.21-.34-.5-.62-.78-.91-.75-.77-1.47-1.56-2.16-2.39,.84-.38,1.15-1.55,2.04-1.77,.25-.07,.52-.04,.77-.01,1.62,.16,3.25,.33,4.87,.5,.43,.04,.88,.09,1.24,.34,.35,.25,.55,.64,.74,1.02,.37,.73,.73,1.46,1.08,2.2,1.22,2.54,2.36,5.13,3.41,7.74"/><path class="cls-8" d="M29.46,34.69s.07-.01,.11-.02c2.23-.39,4.65-.93,6-2.74,.19-.25,.35-.53,.36-.84,.01-.81-.99-1.22-1.8-1.25-.8-.04-1.6,.05-2.36,.26,.17-.3-.05-.68-.27-.96-1.14-1.49-2.28-2.98-3.43-4.47,0,0-.01-.02-.02-.03-.67-.88-1.34-1.75-2.02-2.63-.29-.38-.6-.78-1.04-.98-.57-.27-1.23-.16-1.86-.12-.87,.05-1.75-.05-2.62-.15-1.3-.15-1.16-.13-2.46-.28"/><path class="cls-8" d="M14.25,12.74c.68,2.04,1.63,4.17,2.92,6.33,.1,.17,.2,.35,.31,.52l.12,.18c.15,.24,.3,.48,.45,.71"/><path class="cls-8" d="M24.09,10.98l-.06-.03c-1.22-.68-3.98-1.96-7.51-1.62-1.6,.15-2.92,.6-3.87,1.02"/><path class="cls-8" d="M14,12.85c.08-.04,.17-.08,.25-.11,3.13-1.44,5.88-1.02,9.09,.18"/><path class="cls-8" d="M12.13,22.71s.03-.02,.04-.02c.81-.51,1.64-1.07,2.5-1.69,.9-.64,1.74-1.3,2.5-1.93t.02-.01"/><path class="cls-8" d="M12.67,23.45c.78-.4,1.68-.93,2.63-1.64,.93-.69,1.69-1.4,2.28-2.03"/><path class="cls-8" d="M2.02,27.95c-.02,.1-.06,.2-.1,.3-.03,.07-.06,.14-.12,.18-.1,.07-.25,.04-.34-.03-.1-.08-.16-.19-.2-.31-.22-.61-.1-1.3-.29-1.92-.1-.33-.28-.62-.41-.93-.18-.43-.14-.78,.04-1.07,.16-.27,.45-.5,.79-.71,.38-.22,.84-.33,1.27-.21,0,0,.02,.01,.03,.01,.08,.02,.16,.06,.22,.12,.07,.09,.08,.21,.08,.32,0,.34,.03,.68,.04,1.01,0,.22,.03,.47,.2,.62,.13,.11,.31,.13,.45,.22,.16,.11,.24,.3,.38,.43,.28,.27,.8,.28,.94,.64-.24,.2-.56,.28-.86,.21-.29-.08-.55-.3-.66-.58,.24,.46,.36,.96,.47,1.46,.05,.25,.04,.59-.2,.66-.14,.05-.3-.04-.41-.14-.25-.21-.44-.5-.52-.83,.12,.42-.02,.9-.34,1.19-.06,.06-.14,.11-.22,.09-.07-.03-.12-.11-.14-.18-.06-.17-.1-.36-.1-.55"/><path class="cls-8" d="M2.02,27.94c-.01-.13,0-.27,.03-.4,.01,.13,0,.27-.03,.4Z"/><path class="cls-8" d="M2.02,27.94h0"/><path class="cls-8" d="M27.38,14.3c.07,.07,.13,.15,.18,.24,.04,.07,.07,.14,.07,.21-.01,.12-.11,.23-.23,.26s-.24,.01-.36-.03c-.63-.18-1.11-.69-1.73-.9-.32-.12-.66-.14-.99-.22-.58-.14-.84-.49-.91-.95-.05-.23-.05-.49-.02-.77,.04-.45,.24-.9,.6-1.17,0-.01,.03-.02,.04-.02,.06-.05,.12-.08,.19-.08,.11-.01,.22,.06,.31,.12,.28,.19,.56,.38,.83,.57,.19,.12,.4,.25,.62,.2,.16-.04,.28-.18,.44-.23,.19-.06,.39-.01,.58-.05,.38-.07,.7-.48,1.07-.37,.02,.3-.11,.61-.35,.8-.23,.2-.55,.27-.85,.2,.51,.07,.99,.27,1.45,.48,.23,.11,.5,.32,.42,.56-.05,.14-.21,.21-.36,.24-.32,.08-.66,.05-.97-.07,.4,.15,.71,.55,.75,.98,0,.08,0,.17-.06,.22s-.15,.04-.23,.02c-.18-.05-.34-.13-.49-.24"/><path class="cls-8" d="M27.38,14.3c-.12-.08-.22-.18-.32-.28,.12,.08,.23,.17,.32,.28Z"/><path class="cls-8" d="M17.66,34.62h0c.65-.68,1.49-1.17,2.41-1.4,.02,0,.04-.01,.06-.02,.03-.01,.05-.03,.05-.06s-.05-.04-.07-.02c0,0,0,0,0,.02"/><path class="cls-8" d="M26.18,26.82c.38-.89,1.06-1.66,1.89-2.15,.04-.02,.08-.05,.12-.07-.05,.02-.09,.03-.14,.04-.01,0-.03,.01-.04,.01"/><path class="cls-8" d="M9.26,3.52c-.62,.22-1.33,.51-2.1,.86-.11,.07-.83,.58-.9,1.48-.07,.85,.47,1.67,1.15,1.9,.39,.13,.73,.04,1.26-.12,.71-.22,1.34-.42,1.83-.59"/><path class="cls-8" d="M11.85,6.59c1.34-.43,2.01-.52,2.67-.99,.06-.03,.12-.07,.18-.12,.18-.14,.3-.27,.39-.44,.07-.13,.1-.26,.12-.39,.07-.44-.09-.85-.16-1-.25-.57-.73-.85-.86-.92-.21-.12-.46-.22-.88-.23-.16,0-.34,.01-.54,.03-.57,.07-1.36,.26-2.48,.63-.28,.09-.6,.2-.94,.32"/><path class="cls-8" d="M11.47,6.72s.05-.02,.06-.02"/><path class="cls-8" d="M11.01,6.88c.14-.05,.24-.08,.31-.11"/><path class="cls-8" d="M7.16,4.38c1.11,.89,2.23,1.78,3.34,2.67,.19-.06,.36-.12,.51-.17,.1-.04,.21-.08,.31-.11,.07-.02,.12-.04,.15-.05,.02-.01,.04-.02,.06-.02t.02-.01c.1-.03,.2-.07,.3-.1,.38-.14,.76-.27,1.14-.4-1.22-.9-2.43-1.8-3.64-2.71-.03,.01-.06,.03-.09,.04-.7,.28-1.4,.57-2.1,.86Z"/><polyline class="cls-8" points="12.77 2.53 13.6 3.26 15.21 4.65"/></g></g></g></svg>