<?xml version="1.0" encoding="UTF-8"?><svg id="Layer_2" xmlns="http://www.w3.org/2000/svg" viewBox="0 0 38.95 44.52"><defs><style>.cls-1{fill:#eaf6f9;}.cls-2{fill:#ec5655;}.cls-3{fill:#fff;}.cls-4{fill:#b4b4b4;}.cls-5{fill:#b57b4c;}.cls-6{fill:#a3dadd;}.cls-7{fill:#2075bc;}.cls-8{fill:none;stroke:#010101;stroke-linecap:round;stroke-linejoin:round;stroke-width:.5px;}</style></defs><g id="Layer_1-2"><g><g><path class="cls-1" d="M35.86,27.06c0,.26-.11,.53-.31,.7-.22,.21-.54,.3-.84,.24-.06-.38,.39-.64,.5-1.01,.06-.18,.04-.39,.13-.56,.07-.16,.22-.26,.28-.42,.08-.21-.02-.44-.12-.63-.16-.3-.31-.6-.46-.9-.06-.1-.11-.21-.09-.32,.02-.09,.07-.16,.13-.22,.01,0,.02-.02,.04-.03,.32-.3,.77-.44,1.2-.42,.16,0,.32,.02,.47,.04,.6,.1,1.05,.39,1.12,1.1,.03,.33,.02,.68,.09,1.01,.14,.64,.58,1.18,.69,1.83,.02,.12,.02,.24-.02,.36-.05,.11-.16,.2-.29,.19-.07-.01-.13-.05-.19-.09-.09-.06-.16-.14-.23-.23-.07-.12-.14-.23-.23-.33,.06,.13,.14,.24,.23,.33,.09,.17,.15,.35,.18,.54,0,.08,.02,.17-.04,.22-.06,.06-.15,.05-.23,.03-.42-.09-.78-.44-.88-.87,.09,.33,.07,.67-.05,.98-.05,.14-.14,.29-.29,.32-.25,.06-.42-.24-.49-.48-.15-.45-.27-.91-.3-1.38Z"/><path class="cls-2" d="M33.3,18.18c-.62-.49-1.17-.9-1.62-1.21-.78-.56-1.3-.89-1.43-.98-.27-.16-.49-.29-.65-.39-.18,.32-.47,.79-.86,1.32-.77,1.06-1.48,1.73-1.71,1.97-1.09,1.08-1.76,2.31-2.48,3.6-.77-.15-4.97-3.24-4.97-3.24,.05-.09,.09-.18,.14-.27,.2-.4,.49-.99,.6-1.79,.15-1.03-.15-1.34-.06-2.1,.11-.97,.83-1.69,1.06-1.96,.21-.26,.42-.45,.57-.59-.34-.15-.89-.37-1.58-.49-1.3-.24-2.33-.03-3.92,.29-.41,.08-1.18,.28-2.73,.68-.42,.1,.06-.02-.83,.23,0,0-.09,.03-.26,.08l.03-.09c.12-.43,0-.91-.22-1.29s-.48-.68-.79-.83c.78-.3,1.49-.48,2.2-.67,1.11-.28,2.87-.72,5.26-.78,1.4-.04,2.58,.07,3.46,.19,.4,.39,1.69,1.54,3.71,1.77,.23,.03,1.59,.17,3.03-.4,.04,.2,.1,.45,.16,.74,.06,.26,.09,.36,.17,.48,.1,.15,.21,.21,.39,.34,.14,.1,.35,.27,.57,.51,.57,.41,1.05,.73,1.39,.94,.68,.43,1.04,.62,1.54,1.03,.39,.33,.67,.64,.85,.85,.09,.12,.21,.3,.35,.51,.41,.6,.61,.9,.79,1.28,.18,.37,.29,.71,.35,.93,.12,.4,.17,.72,.19,.85,0,0,.37,1.96,.86,3.37l-.07,.47c-.15-.02-.31-.04-.47-.04-.43-.02-.88,.12-1.2,.42l-.02-.02c-.38-1.2-.47-1.61-.52-1.92-.02-.1-.08-.51-.23-1.02-.06-.21-.12-.4-.15-.48-.1-.3-.19-.54-.28-.77-.24-.62-.49-1.22-.62-1.52Z"/><path class="cls-4" d="M31.93,2.83c1.27,2.12,1,4.75,.14,6.1-.28,.44-.66,.84-.66,.84-.09,.09-.67,.7-1.51,1.16-.22,.12-.43,.22-.65,.3-1.44,.57-2.8,.43-3.03,.4-2.02-.23-3.31-1.38-3.71-1.77-.16-.25-.32-.5-.49-.76-.24-.56-.55-1.48-.58-2.64-.02-.48,.02-.9,.07-1.23,.01-.04,.01-.08,.02-.13l.03-.02c.04,.08,.09,.15,.15,.22,.28,.31,.62,.39,1.16,.51,.73,.16,1.38,.29,1.89,.38,.02,.01,.04,.01,.05,.01,.18,.04,.33,.07,.47,.09,.18,.03,.29,.05,.37,.06,.18,.03,.16,.03,.19,.03,1.74,.32,2.38,.64,3.34,.48,.23-.04,.4-.09,.56-.2,.53-.35,.62-1.02,.64-1.23,.06-.62-.22-1.1-.3-1.22-.3-.51-.91-1.01-3.62-1.53-.29-.05-.62-.11-.98-.17-.02,0-.05-.01-.07-.01-.66-.1-1.42-.2-2.28-.27-.05,0-.23,.02-.46,.1h0c.31-.4,.88-.99,1.75-1.44,.78-.4,1.47-.5,1.94-.56,.45-.06,1.17-.16,2.06,.02,1.04,.21,1.81,.68,2.28,1.03,.63,.55,1.01,1.09,1.23,1.45Z"/><path class="cls-6" d="M30.08,4.21c.08,.12,.36,.6,.3,1.22-.02,.21-.11,.88-.64,1.23-.16,.11-.33,.16-.56,.2-.96,.16-1.6-.16-3.34-.48,.5,.09,1,.17,1.5,.26-.62-1.37-1.24-2.75-1.86-4.13,.36,.06,.69,.12,.98,.17,2.71,.52,3.32,1.02,3.62,1.53Z"/><path class="cls-3" d="M25.48,2.51c.62,1.38,1.24,2.76,1.86,4.13-.5-.09-1-.17-1.5-.26-.03,0-.01,0-.19-.03l-.84-.15s-.03,0-.05-.01c-.55-1.32-1.09-2.64-1.63-3.96,.76,.1,1.52,.18,2.28,.27,.02,0,.05,.01,.07,.01Z"/><path class="cls-6" d="M24.81,6.2l.84,.15c-.08-.01-.19-.03-.37-.06-.14-.02-.29-.05-.47-.09Z"/><path class="cls-6" d="M25.41,2.5c-.76-.09-1.52-.17-2.28-.27,.86,.07,1.62,.17,2.28,.27Z"/><path class="cls-6" d="M23.13,2.23c.54,1.32,1.08,2.64,1.63,3.96-.51-.09-1.16-.22-1.89-.38-.54-.12-.88-.2-1.16-.51-.06-.07-.11-.14-.15-.22-.34-.55-.34-1.38,.06-1.99,.3-.45,.72-.66,1.05-.76,.23-.08,.41-.1,.46-.1Z"/><path class="cls-5" d="M24.55,22.49c-.11,.19-.21,.37-.32,.56-.06,.1-.12,.2-.17,.31h-.01c-.75-.29-1.67-.71-2.65-1.35-1-.66-1.77-1.35-2.34-1.93,.17-.24,.35-.51,.52-.83,0,0,4.2,3.09,4.97,3.24Z"/><path class="cls-7" d="M24.05,23.36c-.91,1.57-2.33,3.78-4.6,6.66-.25,1.28-.51,2.56-.76,3.84,0,0-1.9,.24-2.57-.43,.06-.13,.11-.2,.14-.2,.13-.54,1.23-4.29,1.43-4.88,.19-.59,3.01-3.9,3.01-3.9,0,0-.91-.73-1.89-1.62-1.2-.44-5.61,.69-6.47,.96s-1.62,2.08-1.62,2.08c-.12-.49-2.41-1.02-2.76-1.37,1.25-1.55,2.5-2.87,3.28-3.11,2.06-.64,7.35-.74,7.35-.74,.14-.16,.3-.35,.47-.57,.57,.58,1.34,1.27,2.34,1.93,.98,.64,1.9,1.06,2.65,1.35Z"/><path class="cls-5" d="M18.69,33.86s-.56,6.57-.78,8.2c-.23,1.64-3.08,2.19-3.58,2.21-.51,0-2.19-.1-2.63-.79-.45-.68-.09-1.26,.04-1.84,.14-.59,1.61-1.36,2.15-1.21,0-.31,1.68-5.88,2.23-7,.67,.67,2.57,.43,2.57,.43Z"/><path class="cls-1" d="M11.59,11.12c.31,.15,.56,.45,.79,.83s.34,.86,.22,1.29l-.03,.09c-.02,.05-.05,.1-.09,.14-.09,.07-.21,.08-.32,.08-.34,.02-.67,.04-1.01,.06-.22,.01-.47,.03-.61,.2-.11,.13-.12,.32-.22,.46-.1,.16-.3,.24-.42,.39-.26,.28-.27,.8-.63,.94-.2-.23-.28-.55-.22-.85,.07-.29,.29-.55,.57-.67-.45,.24-.95,.38-1.45,.49-.25,.05-.59,.05-.67-.19-.04-.14,.04-.29,.13-.41,.21-.26,.51-.44,.83-.53-.42,.12-.9,0-1.2-.33-.05-.06-.1-.13-.08-.21s.1-.12,.17-.15c.18-.07,.37-.11,.57-.11,.13,.03,.26,.04,.39,.03-.13-.02-.26-.04-.39-.03-.11-.01-.22-.05-.32-.09-.07-.02-.14-.06-.18-.12-.07-.1-.05-.24,.02-.34,.08-.1,.19-.16,.3-.2,.61-.23,1.31-.12,1.93-.32,.32-.11,.61-.29,.92-.43,.39-.17,.72-.16,1-.02Z"/><path class="cls-5" d="M10.72,25.87c.13,.49-4.21,8.17-4.21,8.17l-3.26-.2s-3.02-.71-3-1.84c.03-1.13,1.03-1.54,1.35-1.74s2.18,0,2.18,0c0,0,2.09-3.19,4.18-5.76,.35,.35,2.64,.88,2.76,1.37Z"/></g><g><path class="cls-8" d="M7.92,12.64c-.11-.01-.22-.05-.32-.09-.07-.02-.14-.06-.18-.12-.07-.1-.05-.24,.02-.34,.08-.1,.19-.16,.3-.2,.61-.23,1.31-.12,1.93-.32,.32-.11,.61-.29,.92-.43,.39-.17,.72-.16,1-.02,.31,.15,.56,.45,.79,.83s.34,.86,.22,1.29l-.03,.09c-.02,.05-.05,.1-.09,.14-.09,.07-.21,.08-.32,.08-.34,.02-.67,.04-1.01,.06-.22,.01-.47,.03-.61,.2-.11,.13-.12,.32-.22,.46-.1,.16-.3,.24-.42,.39-.26,.28-.27,.8-.63,.94-.2-.23-.28-.55-.22-.85,.07-.29,.29-.55,.57-.67-.45,.24-.95,.38-1.45,.49-.25,.05-.59,.05-.67-.19-.04-.14,.04-.29,.13-.41,.21-.26,.51-.44,.83-.53-.42,.12-.9,0-1.2-.33-.05-.06-.1-.13-.08-.21s.1-.12,.17-.15c.18-.07,.37-.11,.57-.11"/><path class="cls-8" d="M7.92,12.64c.13-.01,.26,0,.39,.03-.13,.01-.26,0-.39-.03Z"/><path class="cls-8" d="M37.96,27.7c.07,.09,.14,.17,.23,.23,.06,.04,.12,.08,.19,.09,.13,0,.24-.08,.29-.19,.04-.12,.04-.24,.02-.36-.11-.65-.55-1.19-.69-1.83-.07-.33-.06-.68-.09-1.01-.07-.71-.52-1-1.12-1.1-.15-.02-.31-.04-.47-.04-.43-.02-.88,.12-1.2,.42-.02,.01-.03,.02-.04,.03-.06,.06-.11,.13-.13,.22-.02,.11,.03,.22,.09,.32,.15,.3,.3,.6,.46,.9,.1,.19,.2,.42,.12,.63-.06,.16-.21,.26-.28,.42-.09,.17-.07,.38-.13,.56-.11,.37-.56,.63-.5,1.01,.3,.06,.62-.03,.84-.24,.2-.17,.31-.44,.31-.7,0-.04,0-.08,0-.12"/><path class="cls-8" d="M37.96,27.7c-.07-.12-.14-.23-.23-.33,.06,.13,.14,.24,.23,.33Z"/><path class="cls-8" d="M35.86,27.06c.03,.47,.15,.93,.3,1.38,.07,.24,.24,.54,.49,.48,.15-.03,.24-.18,.29-.32,.12-.31,.14-.65,.05-.98,.1,.43,.46,.78,.88,.87,.08,.02,.17,.03,.23-.03,.06-.05,.05-.14,.04-.22-.03-.19-.09-.37-.18-.54"/><path class="cls-8" d="M21.53,5.1s0,.09-.02,.13c-.05,.33-.09,.75-.07,1.23,.03,1.16,.34,2.08,.58,2.64,.17,.26,.33,.51,.49,.76"/><path class="cls-8" d="M11.55,11.14s.03-.01,.04-.02c.78-.3,1.49-.48,2.2-.67,1.11-.28,2.87-.72,5.26-.78,1.4-.04,2.58,.07,3.46,.19,.4,.39,1.69,1.54,3.71,1.77,.23,.03,1.59,.17,3.03-.4,.22-.08,.43-.18,.65-.3,.84-.46,1.42-1.07,1.51-1.16,0,0,.38-.4,.66-.84,.86-1.35,1.13-3.98-.14-6.1-.22-.36-.6-.9-1.23-1.45-.47-.35-1.24-.82-2.28-1.03-.89-.18-1.61-.08-2.06-.02-.47,.06-1.16,.16-1.94,.56-.87,.45-1.44,1.04-1.75,1.43"/><path class="cls-8" d="M7.96,24.5c.35,.35,2.64,.88,2.76,1.37,.13,.49-4.21,8.17-4.21,8.17l-3.26-.2s-3.02-.71-3-1.84c.03-1.13,1.03-1.54,1.35-1.74s2.18,0,2.18,0c0,0,2.09-3.19,4.18-5.76,1.25-1.55,2.5-2.87,3.28-3.11,2.06-.64,7.35-.74,7.35-.74,.14-.16,.3-.35,.47-.57,.17-.24,.35-.51,.52-.83,.05-.09,.09-.18,.14-.27,.2-.4,.49-.99,.6-1.79,.15-1.03-.15-1.34-.06-2.1,.11-.97,.83-1.69,1.06-1.96,.21-.26,.42-.45,.57-.59-.34-.15-.89-.37-1.58-.49-1.3-.24-2.33-.03-3.92,.29-.41,.08-1.18,.28-2.73,.68-.42,.1,.06-.02-.83,.23,0,0-.09,.03-.26,.08-.02,0-.03,0-.05,.01"/><path class="cls-8" d="M10.72,25.87s.76-1.81,1.62-2.08,5.27-1.4,6.47-.96c.98,.89,1.89,1.62,1.89,1.62,0,0-2.82,3.31-3.01,3.9-.2,.59-1.3,4.34-1.43,4.88-.03,0-.08,.07-.14,.2-.55,1.12-2.23,6.69-2.23,7-.54-.15-2.01,.62-2.15,1.21-.13,.58-.49,1.16-.04,1.84,.44,.69,2.12,.8,2.63,.79,.5-.02,3.35-.57,3.58-2.21,.22-1.63,.78-8.2,.78-8.2,0,0-1.9,.24-2.57-.43"/><polyline class="cls-8" points="33.29 18.2 33.3 18.18 33.31 18.17"/><path class="cls-8" d="M24.05,23.36c-.91,1.57-2.33,3.78-4.6,6.66-.25,1.28-.51,2.56-.76,3.84"/><path class="cls-8" d="M35.1,23.89c-.38-1.2-.47-1.61-.52-1.92-.02-.1-.08-.51-.23-1.02-.06-.21-.12-.4-.15-.48-.1-.3-.19-.54-.28-.77-.24-.62-.49-1.22-.62-1.52-.62-.49-1.17-.9-1.62-1.21-.78-.56-1.3-.89-1.43-.98-.27-.16-.49-.29-.65-.39-.18,.32-.47,.79-.86,1.32-.77,1.06-1.48,1.73-1.71,1.97-1.09,1.08-1.76,2.31-2.48,3.6-.11,.19-.21,.37-.32,.56-.06,.1-.12,.2-.17,.31"/><path class="cls-8" d="M29.25,11.23c.04,.2,.1,.45,.16,.74,.06,.26,.09,.36,.17,.48,.1,.15,.21,.21,.39,.34,.14,.1,.35,.27,.57,.51,.57,.41,1.05,.73,1.39,.94,.68,.43,1.04,.62,1.54,1.03,.39,.33,.67,.64,.85,.85,.09,.12,.21,.3,.35,.51,.41,.6,.61,.9,.79,1.28,.18,.37,.29,.71,.35,.93,.12,.4,.17,.72,.19,.85,0,0,.37,1.96,.86,3.37,.03,.09,.07,.18,.1,.27"/><path class="cls-8" d="M25.41,2.5c-.66-.1-1.42-.2-2.28-.27-.05,0-.23,.02-.46,.1-.33,.1-.75,.31-1.05,.76-.4,.61-.4,1.44-.06,1.99,.04,.08,.09,.15,.15,.22,.28,.31,.62,.39,1.16,.51,.73,.16,1.38,.29,1.89,.38"/><path class="cls-8" d="M25.84,6.38c1.74,.32,2.38,.64,3.34,.48,.23-.04,.4-.09,.56-.2,.53-.35,.62-1.02,.64-1.23,.06-.62-.22-1.1-.3-1.22-.3-.51-.91-1.01-3.62-1.53-.29-.05-.62-.11-.98-.17"/><path class="cls-8" d="M24.81,6.2c.18,.04,.33,.07,.47,.09,.18,.03,.29,.05,.37,.06"/><path class="cls-8" d="M23.13,2.23c.54,1.32,1.08,2.64,1.63,3.96,.02,.01,.04,.01,.05,.01l.84,.15c.18,.03,.16,.03,.19,.03,.5,.09,1,.17,1.5,.26-.62-1.37-1.24-2.75-1.86-4.13-.02,0-.05-.01-.07-.01-.76-.09-1.52-.17-2.28-.27Z"/><path class="cls-8" d="M19.06,20.08c.57,.58,1.34,1.27,2.34,1.93,.98,.64,1.9,1.06,2.65,1.35h.01"/><path class="cls-8" d="M29.4,3.62c.27,.75,.55,1.5,.82,2.25"/><path class="cls-8" d="M19.58,19.25s4.2,3.09,4.97,3.24"/></g></g></g></svg>