<?xml version="1.0" encoding="UTF-8"?><svg id="Layer_2" xmlns="http://www.w3.org/2000/svg" viewBox="0 0 111.05 128.78"><defs><style>.cls-1,.cls-2{stroke-linecap:round;stroke-linejoin:round;}.cls-1,.cls-2,.cls-3,.cls-4{fill:none;stroke:#231f20;}.cls-5{fill:#fff;}.cls-6{fill:#f5c66c;}.cls-7{fill:#939598;}.cls-8{fill:#bcbec0;}.cls-9{fill:#b27c74;}.cls-10{fill:#1c75bc;}.cls-2,.cls-4{stroke-width:.5px;}.cls-3,.cls-4{stroke-miterlimit:10;}</style></defs><g id="Layer_1-2"><g><g><path class="cls-10" d="M58.05,80.13c-5.97-2.12-11.26-5.66-14.74-10.93-1.29-1.95-2.27-4.05-3.02-6.24-.5-1.47-.89-2.98-1.19-4.52-.11-.53-.2-1.06-.28-1.6,4.38,3.57,11.04,7.93,19.93,10.44,.41,.12,.83,.23,1.26,.34,11.56,2.97,21.02,1.3,26.96,.18,9.26-1.74,16.41-4.95,20.97-7.4-.63,1.58-1.56,4.31-4.09,7.81,1.36,9.4,2.72,18.8,4.08,28.2,.07,.47,.14,.96,.04,1.43-.21,.97-1.14,1.67-2.11,1.85-.98,.19-1.99-.05-2.91-.41-.64-8.64-1.22-18.76-1.85-27.69-1.51,1.68-3.34,3.35-5.53,4.88-3.31,2.31-7.06,3.85-10.99,4.8,.99,12.28,3.65,31.03,7.05,42.87-5.01,1.23-10.02,2.46-15.03,3.68-1.3,.32-2.65,.64-3.96,.35s-2.54-1.39-2.51-2.73c.03-1.22,1-2.09,2.12-2.7,.38-.2,.77-.36,1.15-.51,3.39-1.29,6.99-2.02,10.61-2.15-1.49-11.03-3.49-26.8-4.98-37.83-1.41,.16-2.83,.26-4.25,.31-3.71,.12-7.54-.17-11.24-.93,1,12.2,3.21,24.3,6.59,36.07-5.01,1.23-10.02,2.45-15.03,3.68-1.3,.32-2.66,.64-3.96,.35-1.31-.29-2.54-1.39-2.51-2.73,.03-1.62,1.75-2.64,3.27-3.21,3.39-1.29,6.99-2.02,10.61-2.15-1.49-11.03-2.97-22.48-4.46-33.51Z"/><path class="cls-6" d="M83.91,29.96c1.06,.38,2.24,.34,3.31-.02,3.01-1,4.48-4.4,2.53-7.09-1.55-2.13-5.04-1.25-6.77,.21-1.31,1.1-2.07,3-1.44,4.66,.4,1.05,1.31,1.87,2.37,2.24Zm3.06,37.84c-5.94,1.12-15.4,2.79-26.96-.18-.43-.11-.85-.22-1.26-.34l.63-2.31c1.67,.48,3.47,.47,5.14-.02,1.16-.35,4.35-1.67,2.66-3.17-1.23-1.08-3.71-1.05-5.2-1.76-1.67-.8-3.17-1.95-4.35-3.38-.67-.81-1.38-1.8-2.44-1.87h-.09l4.48-2.66c2.47,3.73,7.36,5.17,11.84,5.02,2.75-.09,5.56-.71,7.81-2.29,3.06-2.13,4.25-5,4.66-6.04,1.62-4.08,.8-7.66,.53-8.74-.31-1.27-1.35-5.54-5.36-8.19-.48-.32-2.59-1.67-5.68-1.95-3.37-.31-5.9,.82-7.13,1.39-.47,.22-1.95,.93-3.56,2.23l-3.25-4.36c.59,0,1.18-.1,1.74-.28,3.01-1,4.48-4.41,2.53-7.09-1.55-2.13-5.04-1.25-6.78,.21l-5.34-2.2c4.27-3.45,8.21-5.35,9.43-5.92,3.27-1.52,10-4.54,18.97-3.71,8.22,.76,13.84,4.34,15.12,5.19,10.66,7.06,13.43,18.42,14.25,21.78,.71,2.88,2.89,12.4-1.42,23.24-4.56,2.45-11.71,5.66-20.97,7.4Z"/><path class="cls-8" d="M26.38,116.9V31.36c.02-.09,.04-.18,.07-.27l.1,.03h.01c1.01,.96,2.77,.96,3.77-.01l.11-.04c.04,.09,.08,.19,.12,.29l-.05,35.34v5.53l-.06,44.8c-.18,.14-.41,.18-.62,.23-1.17,.23-2.51,.34-3.45-.36Z"/><path class="cls-5" d="M89.75,22.85c1.95,2.69,.48,6.09-2.53,7.09-1.07,.36-2.25,.4-3.31,.02-1.06-.37-1.97-1.19-2.37-2.24-.63-1.66,.13-3.56,1.44-4.66,1.73-1.46,5.22-2.34,6.77-.21Zm-3.45,3.91c.54-.33,.86-1.5,.16-1.85-.6-.3-1.58,.2-1.72,.83-.09,.38,.1,.81,.44,1.02,.33,.21,.79,.21,1.12,0Z"/><path d="M86.46,24.91c.7,.35,.38,1.52-.16,1.85-.33,.21-.79,.21-1.12,0-.34-.21-.53-.64-.44-1.02,.14-.63,1.12-1.13,1.72-.83Z"/><path class="cls-9" d="M67.18,61.78c1.69,1.5-1.5,2.82-2.66,3.17-1.67,.49-3.47,.5-5.14,.02-.27-.08-.55-.17-.81-.28-2.49-.98-4.49-3.13-5.3-5.68-.27-.88-.41-1.83-.12-2.7,.29-.83,1.08-1.54,1.95-1.54h.09c1.06,.07,1.77,1.06,2.44,1.87,1.18,1.43,2.68,2.58,4.35,3.38,1.49,.71,3.97,.68,5.2,1.76Z"/><path class="cls-5" d="M63.71,21.81c1.95,2.68,.48,6.09-2.53,7.09-.56,.18-1.15,.28-1.74,.28-.53,0-1.07-.08-1.57-.26-1.06-.38-1.97-1.19-2.37-2.24-.64-1.66,.13-3.56,1.43-4.66,1.74-1.46,5.23-2.34,6.78-.21Zm-3.45,3.91c.54-.34,.86-1.5,.16-1.85-.6-.3-1.58,.2-1.72,.82-.09,.39,.1,.82,.43,1.03,.34,.21,.79,.2,1.13,0Z"/><path class="cls-6" d="M59.44,29.18l3.25,4.36c-1.81,1.47-3.79,3.69-4.61,6.77-.41,1.53-.39,2.8-.4,3.81-.03,2.77,.37,5.67,1.9,7.99l-4.48,2.66c-.87,0-1.66,.71-1.95,1.54-.29,.87-.15,1.82,.12,2.7,.81,2.55,2.81,4.7,5.3,5.68,.26,.11,.54,.2,.81,.28l-.63,2.31c-8.89-2.51-15.55-6.87-19.93-10.44-.46-2.93-.61-5.94-.58-8.89,.03-2.68-.02-6.05,1.07-10.12,2.19-8.2,7.44-14.1,12.28-18.01l5.34,2.2c-1.3,1.1-2.07,3-1.43,4.66,.4,1.05,1.31,1.86,2.37,2.24,.5,.18,1.04,.26,1.57,.26Z"/><path d="M60.42,23.87c.7,.35,.38,1.51-.16,1.85-.34,.2-.79,.21-1.13,0-.33-.21-.52-.64-.43-1.03,.14-.62,1.12-1.12,1.72-.82Z"/><path class="cls-10" d="M40.29,62.96l-.22,.07c-2.56,3.63-6.48,6-9.56,9.2v-5.53c2.76-3.8,5.03-5.11,8.53-8.25h.05s.01-.01,.01-.01c.3,1.54,.69,3.05,1.19,4.52Z"/><path class="cls-7" d="M30.44,31.06h0s-.11,.05-.11,.05c-1,.97-2.76,.97-3.77,.01h-.01l-.1-.03c.53-2.12,1.39-3.26,1.9-5.47,.82,2.14,1.3,3.37,2.09,5.44Z"/></g><g><path class="cls-1" d="M103.85,68.21c2.53-3.5,3.46-6.23,4.09-7.81,4.31-10.84,2.13-20.36,1.42-23.24-.82-3.36-3.59-14.72-14.25-21.78-1.28-.85-6.9-4.43-15.12-5.19-8.97-.83-15.7,2.19-18.97,3.71-1.22,.57-5.16,2.47-9.43,5.92-4.84,3.91-10.09,9.81-12.28,18.01-1.09,4.07-1.04,7.44-1.07,10.12-.03,2.95,.12,5.96,.58,8.89,.08,.54,.17,1.07,.28,1.6,.3,1.54,.69,3.05,1.19,4.52,.75,2.19,1.73,4.29,3.02,6.24,3.48,5.27,8.77,8.81,14.74,10.93"/><path class="cls-1" d="M84.58,81.27c3.93-.95,7.68-2.49,10.99-4.8,2.19-1.53,4.02-3.2,5.53-4.88,.06-.06,.11-.11,.16-.17"/><path class="cls-1" d="M38.82,56.84c4.38,3.57,11.04,7.93,19.93,10.44,.41,.12,.83,.23,1.26,.34,11.56,2.97,21.02,1.3,26.96,.18,9.26-1.74,16.41-4.95,20.97-7.4"/><path class="cls-1" d="M100.89,68.65c.07,.96,.14,1.94,.21,2.94,.63,8.93,1.21,19.05,1.85,27.69"/><path class="cls-1" d="M103.85,68.21c1.36,9.4,2.72,18.8,4.08,28.2,.07,.47,.14,.96,.04,1.43-.21,.97-1.14,1.67-2.11,1.85-.98,.19-1.99-.05-2.91-.41"/><path class="cls-2" d="M59.38,64.97c1.67,.48,3.47,.47,5.14-.02,1.16-.35,4.35-1.67,2.66-3.17-1.23-1.08-3.71-1.05-5.2-1.76-1.67-.8-3.17-1.95-4.35-3.38-.67-.81-1.38-1.8-2.44-1.87h-.09c-.87,0-1.66,.71-1.95,1.54-.29,.87-.15,1.82,.12,2.7,.81,2.55,2.81,4.7,5.3,5.68,.26,.11,.54,.2,.81,.28Z"/><path class="cls-1" d="M63.52,81.4c0,.08,0,.15,.02,.23,1,12.2,3.21,24.3,6.59,36.07-5.01,1.23-10.02,2.45-15.03,3.68-1.3,.32-2.66,.64-3.96,.35-1.31-.29-2.54-1.39-2.51-2.73,.03-1.62,1.75-2.64,3.27-3.21,3.39-1.29,6.99-2.02,10.61-2.15-1.49-11.03-2.97-22.48-4.46-33.51"/><path class="cls-1" d="M79.03,82.25c1.49,11.03,3.49,26.8,4.98,37.83-3.62,.13-7.22,.86-10.61,2.15-.38,.15-.77,.31-1.15,.51-1.12,.61-2.09,1.48-2.12,2.7-.03,1.34,1.2,2.44,2.51,2.73s2.66-.03,3.96-.35c5.01-1.22,10.02-2.45,15.03-3.68-3.4-11.84-6.06-30.59-7.05-42.87"/><path class="cls-1" d="M39.04,58.45c-3.5,3.14-5.77,4.45-8.53,8.25t-.01,.02"/><path class="cls-1" d="M40.07,63.03c-2.56,3.63-6.48,6-9.56,9.2h-.01"/><polyline class="cls-1" points="30.56 31.36 30.51 66.7 30.51 72.23 30.45 117.03"/><polyline class="cls-1" points="26.38 31.36 26.38 116.9 26.38 117.23"/><path class="cls-1" d="M26.22,116.78c.05,.04,.1,.09,.16,.12,.94,.7,2.28,.59,3.45,.36,.21-.05,.44-.09,.62-.23,.17-.13,.29-.37,.21-.58"/><path class="cls-3" d="M63.27,81.58c.09,.02,.18,.04,.27,.05,3.7,.76,7.53,1.05,11.24,.93,1.42-.05,2.84-.15,4.25-.31l.24-.03"/><polyline class="cls-2" points="26.44 31.09 26.45 31.09 26.55 31.12"/><line class="cls-2" x1="30.44" y1="31.06" x2="30.45" y2="31.06"/><line class="cls-2" x1="30.33" y1="31.11" x2="30.44" y2="31.07"/><line class="cls-2" x1="39.04" y1="58.45" x2="39.09" y2="58.44"/><path class="cls-1" d="M28.35,25.62c-.51,2.21-1.37,3.35-1.9,5.47-.03,.09-.05,.18-.07,.27"/><path class="cls-1" d="M28.35,25.62c.82,2.14,1.3,3.37,2.09,5.44h0l.12,.3"/><path class="cls-1" d="M26.56,31.12c1.01,.96,2.77,.96,3.77-.01"/><line class="cls-2" x1="26.55" y1="31.12" x2="26.56" y2="31.12"/><path class="cls-4" d="M81.54,27.72c.4,1.05,1.31,1.87,2.37,2.24,1.06,.38,2.24,.34,3.31-.02,3.01-1,4.48-4.4,2.53-7.09-1.55-2.13-5.04-1.25-6.77,.21-1.31,1.1-2.07,3-1.44,4.66Z"/><path class="cls-4" d="M84.74,25.74c-.09,.38,.1,.81,.44,1.02,.33,.21,.79,.21,1.12,0,.54-.33,.86-1.5,.16-1.85-.6-.3-1.58,.2-1.72,.83Z"/><path class="cls-4" d="M56.93,22.02c-1.3,1.1-2.07,3-1.43,4.66,.4,1.05,1.31,1.86,2.37,2.24,.5,.18,1.04,.26,1.57,.26,.59,0,1.18-.1,1.74-.28,3.01-1,4.48-4.41,2.53-7.09-1.55-2.13-5.04-1.25-6.78,.21Z"/><path class="cls-4" d="M58.7,24.69c-.09,.39,.1,.82,.43,1.03,.34,.21,.79,.2,1.13,0,.54-.34,.86-1.5,.16-1.85-.6-.3-1.58,.2-1.72,.82Z"/><path class="cls-1" d="M59.58,52.11c2.47,3.73,7.36,5.17,11.84,5.02,2.75-.09,5.56-.71,7.81-2.29,3.06-2.13,4.25-5,4.66-6.04,1.62-4.08,.8-7.66,.53-8.74-.31-1.27-1.35-5.54-5.36-8.19-.48-.32-2.59-1.67-5.68-1.95-3.37-.31-5.9,.82-7.13,1.39-.47,.22-1.95,.93-3.56,2.23-1.81,1.47-3.79,3.69-4.61,6.77-.41,1.53-.39,2.8-.4,3.81-.03,2.77,.37,5.67,1.9,7.99Z"/></g></g></g></svg>