<?xml version="1.0" encoding="UTF-8"?><svg id="Layer_2" xmlns="http://www.w3.org/2000/svg" viewBox="0 0 198.94 177.27"><defs><style>.cls-1{fill:#00a14b;}.cls-2{fill:#ffde17;}.cls-3{fill:#ec008c;}.cls-4{fill:#f5c66c;}.cls-5{fill:#ed1c24;}.cls-6{fill:#f176ae;}.cls-7{fill:#1c75bc;}.cls-8{fill:none;stroke:#231f20;stroke-miterlimit:10;}</style></defs><g id="Layer_1-2"><g><g><path class="cls-6" d="M106.64,130.33c-.14,1.52,.01,2.04-.31,2.85-.79,2-3.62,3.6-5.76,3.08-.76-.18-2.19-.51-4.2-5.35-.07-.16-.13-.32-.2-.49-.92-2.31-1.61-4.77-3.08-6.77-2.6-3.54-7.08-5.04-11.23-6.44-13.66-4.62-26.92-10.44-39.57-17.36-.88-.47-1.75-.95-2.62-1.45-2.83-1.57-5.63-3.22-8.39-4.93-4.16-2.54-8.24-5.21-12.24-8.01-.07,1.72,.3,3.47,1.09,5,.73,1.42,1.83,2.89,1.42,4.43-.52,1.93-3.33,2.42-4.95,1.24-1.61-1.18-2.19-3.34-2.27-5.34s.22-4.02-.14-5.99c-1.36-7.42-10.98-10.71-13.23-17.9-1.31-4.18,.31-8.91,3.38-12.02,3.07-3.12,7.38-4.77,11.71-5.39,4.32-.63,8.73-.31,13.09,.01,4.57,.34,9.14,.67,13.71,1.01l-.2,2.66c-4.71-.34-8.82-.44-12.21-.43-8.38,.02-12.1,.68-14.82,3.43-.48,.49-2.33,2.4-2.83,5.18-1.08,6.04,4.97,11.92,9.85,16.08,3.68,3.14,7.44,5.92,11.26,8.44,6.16,4.07,12.48,7.45,18.89,10.52,1.06,.51,2.13,1.02,3.21,1.51,2.17,1.01,4.34,1.99,6.53,2.95,1.17,.52,2.31,1.02,3.42,1.5,1.99,.88,3.89,1.71,5.74,2.51,8.13,3.5,15.19,6.34,24.52,9.39,8.81,2.88,16.15,4.69,28.46,7.55,2.09,.48,4.33,.99,6.75,1.55,7.9,1.82,14.22,3.15,19.81,3.95,7.55,1.08,13.76,1.2,20.69,.26,11.29-1.54,14.34-4.51,15.55-7.08,2.75-5.84-2.34-13.24-3.5-14.95-5.72-8.31-15.11-10.32-17.93-10.82,.23-.76,.44-1.52,.65-2.25,2.07,.4,5.26,1.17,8.88,2.78,12.73,5.68,18.2,16.11,20.4,20.32,2.45,4.69,2.81,7.28,2.22,9.59-1.06,4.22-5.26,6.87-6.13,6.45-.1-.04-.55-.31-1.25-.42-.02,0-.29-.04-.55-.04-.88,.03-1.58,.46-2.03,.8-.32,.32-.83,.88-1.1,1.71-.83,2.62,1.88,4.52,1.16,7.37-.3,1.22-1.18,2.41-1.89,2.36-.19-.02-.55-.13-1.54-2-1.12-2.11-.84-2.3-1.31-2.75-1.52-1.49-4.42,.75-6.04-.72-.79-.71-.38-1.48-1.61-2.67-.4-.39-1.05-1-2.02-1.08-.9-.08-1.6,.35-1.88,.51-.75,.45-.92,.92-1.36,1.33-.85,.79-2.12,.94-3.55,.76-11.13-1.39-17.91-2.23-22.39-2.96-1.25-.21-2.32-.4-3.25-.6-9.74-2.07-18.93-3.22-23.9-4.85-.38-.13-.75-.24-1.14-.35-1.05-.29-2.12-.54-3.16-.87-3.14-1.01-4.52-1.71-5.4-1.01-.5,.39-.69,1.06-.95,2.41-.14,.73-.21,1.31-.26,1.8Z"/><path class="cls-4" d="M163.37,25.27c12,19.19,8.51,40.01,5.96,55.28-.56,3.33-1.38,7.36-2.64,11.91-.21,.73-.42,1.49-.65,2.25-2.72,9.12-7.2,20.09-14.68,31.66l-.13,.93c-5.59-.8-11.91-2.13-19.81-3.95-2.42-.56-4.66-1.07-6.75-1.55l.1-.43c3.45-4.41,4.5-10.58,2.71-15.88l-.06-.67c.82-.08,1.64-.15,2.46-.23,2.08-.2,4.54-.65,5.37-2.57,1.55-3.55-4.32-7.17-2.86-10.75,3.55,0,7.06-1.76,9.15-4.62s2.72-6.74,1.63-10.11c-.81-2.51-2.49-4.68-3.28-7.2-.8-2.51-.36-5.81,2.01-6.97,2.65-1.3,5.61,.79,8.44,1.64,3.24,.96,6.94,.13,9.46-2.12s3.76-5.84,3.17-9.16c-1.42-7.99-11.72-11.87-13.68-19.67,.84-.47,1.5-1.3,1.8-2.23,.46-1.42,.23-2.96-.2-4.38-.77-2.5-2.18-4.79-4.06-6.63-.07-4.74-1.2-9.46-3.26-13.73,11.54,6.24,17.7,15.81,19.8,19.18Z"/><path class="cls-3" d="M146.83,19.82c1.88,1.84,3.29,4.13,4.06,6.63,.43,1.42,.66,2.96,.2,4.38-.3,.93-.96,1.76-1.8,2.23,1.96,7.8,12.26,11.68,13.68,19.67,.59,3.32-.65,6.91-3.17,9.16s-6.22,3.08-9.46,2.12c-2.83-.85-5.79-2.94-8.44-1.64-2.37,1.16-2.81,4.46-2.01,6.97,.79,2.52,2.47,4.69,3.28,7.2,1.09,3.37,.46,7.25-1.63,10.11s-5.6,4.63-9.15,4.62c-1.46,3.58,4.41,7.2,2.86,10.75-.83,1.92-3.29,2.37-5.37,2.57-.82,.08-1.64,.15-2.46,.23l.06,.67c1.79,5.3,.74,11.47-2.71,15.88l-.1,.43c-12.31-2.86-19.65-4.67-28.46-7.55-9.33-3.05-16.39-5.89-24.52-9.39l.06-.15c4.42,.31,8.52-2.51,11.84-5.52,11-10,18.47-23.49,22.75-37.73,1.19-3.96,2.16-8.04,2.04-12.16-.1-3.61-1.1-7.29-3.23-10.17l-.92,.18c-4.51-2.14-10.51-.21-12.93,4.16-1.52,2.73-1.76,6.2-3.95,8.44-1.57,1.61-3.99,2.39-5.06,4.36-.96,1.77-.52,3.96,.13,5.87s1.51,3.84,1.32,5.85c-.22,2.26-1.75,4.2-3.57,5.54-1.82,1.35-3.94,2.22-5.95,3.26-3.69,1.93-7.11,4.54-9.39,8.02-2.29,3.48-3.34,7.89-2.24,11.91,.57,2.1,1.79,4.05,3.42,5.49l-.06,.14c-1.11-.48-2.25-.98-3.42-1.5-2.19-.96-4.36-1.94-6.53-2.95-1.16-2.4-1.8-5.04-1.89-7.71-.99,.31-1.98,.62-2.97,.92l1.65,5.28c-6.41-3.07-12.73-6.45-18.89-10.52,3.06-8.38,7.83-19.63,15.31-32.06h.01c.5-.85,1.03-1.72,1.58-2.59,1.88-3.02,3.93-6.11,6.16-9.24,9.14-12.85,16.01-22.48,28.94-30.25,6.19-3.72,28.51-17.13,52.01-8.23,2.01,.76,3.9,1.64,5.66,2.59,2.06,4.27,3.19,8.99,3.26,13.73Zm-16.98,30.94c1.23-.52,2.45-1.04,3.68-1.56-1.51-3.58-2.76-7.53-4.66-10.91-2.32,.57-2.44,2.08-1.86,4.08,.22,.73,2.95,8.35,2.84,8.39Zm-2.47-37.76c-.6-1.14-1.2-2.29-1.8-3.44-2.93,1.13-9.05,1.93-7.06,6.26,.75-.15,8.86-2.82,8.86-2.82Zm-6.08,12.19c-.21-.96-.53-2.04-1.43-2.44-.72-.31-1.55-.06-2.29,.19-2.47,.85-4.94,1.7-7.41,2.54,1.21,2.55,1.31,3.27,4.11,2.26,.6-.22,7.02-2.41,7.02-2.55Zm-3.68,59.19c-1.03-2.99-2.07-5.99-3.1-8.98-.14-.42-.31-.86-.68-1.1-.63-.41-1.91,.06-2.22,.74-.39,.84,.45,1.98,.8,2.78,1.05,2.39,2.1,4.78,3.15,7.16,.68-.2,1.37-.4,2.05-.6Zm-24.47-63.35c1.3-1.93,2.6-3.85,3.9-5.78-.71-.45-1.42-.91-2.13-1.36,0,.07-5.62,8.73-6.04,9.57,2.43,1.05,3-.56,4.27-2.43Zm-26.15,28.07c.25-.72,1.13-8.55,1.08-8.56-1.01-.2-2.11,.22-2.73,1.04-.5,.67-.68,1.52-.83,2.34-.5,2.55-1.12,5.12-1.47,7.69,1.79-.1,3.34-.74,3.95-2.51Zm-15.1,25.16c2.05-.49,2.41-1.81,2.25-3.68-.06-.71-1.08-8.45-1.14-8.45-.89,.06-1.61,.84-1.87,1.7-.27,.86-.18,1.78-.09,2.67,.27,2.54,.28,5.29,.85,7.76Z"/><path class="cls-4" d="M144.7,133.8l-.06,.35c-8.15,10.56-17.06,20.71-27.82,28.6-10.76,7.9-23.54,13.46-36.88,13.99-13.33,.53-27.17-4.43-35.81-14.6l-.65-.03c.16-.26,.28-.54,.36-.85,.32-1.29-.15-2.54-.71-3.79,6.37-.82,12.73-1.62,19.11-2.44,2.6-.33,5.29-.66,7.8,.12,2.84,.89,5.05,3.06,7.43,4.84,2.39,1.78,5.4,3.25,8.26,2.41,3.17-.93,4.94-4.48,5.02-7.79,.08-3.3-1.12-6.48-2.04-9.66-.92-3.17-1.56-6.64-.39-9.73s4.77-5.47,7.83-4.22l.22-.09c2.01,4.84,3.44,5.17,4.2,5.35,2.14,.52,4.97-1.08,5.76-3.08,.32-.81,.17-1.33,.31-2.85,1.37-.02,3.11-.17,5.06-.64,1.91-.46,3.49-1.1,4.71-1.68h0c.39,.1,.76,.21,1.14,.34,4.97,1.63,14.16,2.78,23.9,4.85,.93,.2,2,.39,3.25,.6Z"/><path class="cls-2" d="M133.53,49.2c-1.23,.52-2.45,1.04-3.68,1.56,.11-.04-2.62-7.66-2.84-8.39-.58-2-.46-3.51,1.86-4.08,1.9,3.38,3.15,7.33,4.66,10.91Z"/><path class="cls-5" d="M125.58,9.56c.6,1.15,1.2,2.3,1.8,3.44,0,0-8.11,2.67-8.86,2.82-1.99-4.33,4.13-5.13,7.06-6.26Z"/><path class="cls-1" d="M119.87,22.75c.9,.4,1.22,1.48,1.43,2.44,0,.14-6.42,2.33-7.02,2.55-2.8,1.01-2.9,.29-4.11-2.26,2.47-.84,4.94-1.69,7.41-2.54,.74-.25,1.57-.5,2.29-.19Z"/><path class="cls-7" d="M114.52,75.4c1.03,2.99,2.07,5.99,3.1,8.98-.68,.2-1.37,.4-2.05,.6-1.05-2.38-2.1-4.77-3.15-7.16-.35-.8-1.19-1.94-.8-2.78,.31-.68,1.59-1.15,2.22-.74,.37,.24,.54,.68,.68,1.1Z"/><path class="cls-3" d="M116.41,128h0c-1.22,.59-2.8,1.23-4.71,1.69-1.95,.47-3.69,.62-5.06,.64,.05-.49,.12-1.07,.26-1.8,.26-1.35,.45-2.02,.95-2.41,.88-.7,2.26,0,5.4,1.01,1.04,.33,2.11,.58,3.16,.87Z"/><path class="cls-4" d="M108.38,49.3c.12,4.12-.85,8.2-2.04,12.16-4.28,14.24-11.75,27.73-22.75,37.73-3.32,3.01-7.42,5.83-11.84,5.52l-.06,.15c-1.85-.8-3.75-1.63-5.74-2.51l.06-.14c-1.63-1.44-2.85-3.39-3.42-5.49-1.1-4.02-.05-8.43,2.24-11.91,2.28-3.48,5.7-6.09,9.39-8.02,2.01-1.04,4.13-1.91,5.95-3.26,1.82-1.34,3.35-3.28,3.57-5.54,.19-2.01-.67-3.94-1.32-5.85s-1.09-4.1-.13-5.87c1.07-1.97,3.49-2.75,5.06-4.36,2.19-2.24,2.43-5.71,3.95-8.44,2.42-4.37,8.42-6.3,12.93-4.16l.92-.18c2.13,2.88,3.13,6.56,3.23,10.17Z"/><path class="cls-2" d="M97.05,15.25c-1.3,1.93-2.6,3.85-3.9,5.78-1.27,1.87-1.84,3.48-4.27,2.43,.42-.84,6.04-9.5,6.04-9.57,.71,.45,1.42,.91,2.13,1.36Z"/><path class="cls-3" d="M43.13,157.47c.56,1.25,1.03,2.5,.71,3.79-.08,.31-.2,.59-.36,.85-1.1,1.74-3.87,2.26-5.72,1.15-2.12-1.28-3.04-3.96-3-6.43,.02-1.56,.35-3.11,.23-4.66-.13-1.73-.81-3.37-1.43-4.99-6.28-16.64-5.68-35.09-2.92-52.66l.64-1.05c2.76,1.71,5.56,3.36,8.39,4.93l-.14,.25,1.2,8.73c.87,.1,1.73,.19,2.6,.29-.38-2.56-.75-5.11-1.13-7.66l.09-.16c12.65,6.92,25.91,12.74,39.57,17.36,4.15,1.4,8.63,2.9,11.23,6.44,1.47,2,2.16,4.46,3.08,6.77,.07,.17,.13,.33,.2,.49l-.22,.09c-3.06-1.25-6.66,1.13-7.83,4.22s-.53,6.56,.39,9.73c.92,3.18,2.12,6.36,2.04,9.66-.08,3.31-1.85,6.86-5.02,7.79-2.86,.84-5.87-.63-8.26-2.41-2.38-1.78-4.59-3.95-7.43-4.84-2.51-.78-5.2-.45-7.8-.12-6.38,.82-12.74,1.62-19.11,2.44Zm24.85-26.33c1.21-1.36,1.6-4.3-.86-2.8-1.97,1.18-3.73,3.67-5.12,5.45-.34,.44-.68,.93-.66,1.48s.61,1.09,1.11,.84c2.01-1.45,3.87-3.13,5.53-4.97Zm-12.05-13.35c-.39-.49-.79-.97-1.18-1.45-3.37,1.15-6.72,2.45-10.14,3.43,.44,.32-.11,1.51,.74,1.96,.42,.23,.94,.1,1.39-.04,3.19-.99,6.27-2.3,9.19-3.9Zm-7.43,20.84c.48-.69,.13-1.71-.53-2.23-.66-.53-1.54-.68-2.37-.81-1.43-.24-3.29-.88-4.74-.77-1.16,.09-2.04,.98-.61,1.96,.36,.25,.81,.35,1.24,.43,2.34,.48,4.67,.95,7.01,1.42Z"/><path class="cls-5" d="M67.12,128.34c2.46-1.5,2.07,1.44,.86,2.8-1.66,1.84-3.52,3.52-5.53,4.97-.5,.25-1.09-.29-1.11-.84s.32-1.04,.66-1.48c1.39-1.78,3.15-4.27,5.12-5.45Z"/><path class="cls-7" d="M68.08,40.54s-.83,7.84-1.08,8.56c-.61,1.77-2.16,2.41-3.95,2.51,.35-2.57,.97-5.14,1.47-7.69,.15-.82,.33-1.67,.83-2.34,.62-.82,1.72-1.24,2.73-1.04Z"/><path class="cls-7" d="M54.75,116.34c.39,.48,.79,.96,1.18,1.45-2.92,1.6-6,2.91-9.19,3.9-.45,.14-.97,.27-1.39,.04-.85-.45-.3-1.64-.74-1.96,3.42-.98,6.77-2.28,10.14-3.43Z"/><path class="cls-5" d="M56,97.9c-1.08-.49-2.15-1-3.21-1.51l-1.65-5.28c.99-.3,1.98-.61,2.97-.92,.09,2.67,.73,5.31,1.89,7.71Z"/><path class="cls-1" d="M54.15,70.58c.16,1.87-.2,3.19-2.25,3.68-.57-2.47-.58-5.22-.85-7.76-.09-.89-.18-1.81,.09-2.67,.26-.86,.98-1.64,1.87-1.7,.06,0,1.08,7.74,1.14,8.45Z"/><path class="cls-6" d="M50.55,51.07l.25,.15c-.55,.87-1.08,1.74-1.58,2.59h-.01l-.02-.02c-2.29-.26-4.47-.46-6.54-.62l.2-2.66c2.57,.19,5.13,.37,7.7,.56Z"/><path class="cls-1" d="M47.97,136.4c.66,.52,1.01,1.54,.53,2.23-2.34-.47-4.67-.94-7.01-1.42-.43-.08-.88-.18-1.24-.43-1.43-.98-.55-1.87,.61-1.96,1.45-.11,3.31,.53,4.74,.77,.83,.13,1.71,.28,2.37,.81Z"/><path class="cls-2" d="M42.2,100.01c.38,2.55,.75,5.1,1.13,7.66-.87-.1-1.73-.19-2.6-.29l-1.2-8.73,.14-.25c.87,.5,1.74,.98,2.62,1.45l-.09,.16Z"/></g><g><path class="cls-8" d="M30.64,94.52c-2.76,17.57-3.36,36.02,2.92,52.66,.62,1.62,1.3,3.26,1.43,4.99,.12,1.55-.21,3.1-.23,4.66-.04,2.47,.88,5.15,3,6.43,1.85,1.11,4.62,.59,5.72-1.15,.16-.26,.28-.54,.36-.85,.32-1.29-.15-2.54-.71-3.79-.31-.69-.65-1.38-.9-2.07-.86-2.39-.6-5.15,.69-7.33"/><path class="cls-8" d="M44.13,162.14c8.64,10.17,22.48,15.13,35.81,14.6,13.34-.53,26.12-6.09,36.88-13.99,10.76-7.89,19.67-18.04,27.82-28.6-.19,.37-.39,.74-.59,1.11"/><path class="cls-8" d="M151.36,126.37c7.48-11.57,11.96-22.54,14.68-31.66,.23-.76,.44-1.52,.65-2.25,1.26-4.55,2.08-8.58,2.64-11.91,2.55-15.27,6.04-36.09-5.96-55.28-2.1-3.37-8.26-12.94-19.8-19.18-1.76-.95-3.65-1.83-5.66-2.59-23.5-8.9-45.82,4.51-52.01,8.23-12.93,7.77-19.8,17.4-28.94,30.25-2.23,3.13-4.28,6.22-6.16,9.24-.55,.87-1.08,1.74-1.58,2.59h-.01c-7.48,12.43-12.25,23.68-15.31,32.06h0"/><path class="cls-8" d="M50.55,51.07c-2.57-.19-5.13-.37-7.7-.56-4.57-.34-9.14-.67-13.71-1.01-4.36-.32-8.77-.64-13.09-.01-4.33,.62-8.64,2.27-11.71,5.39-3.07,3.11-4.69,7.84-3.38,12.02,2.25,7.19,11.87,10.48,13.23,17.9,.36,1.97,.06,3.99,.14,5.99s.66,4.16,2.27,5.34c1.62,1.18,4.43,.69,4.95-1.24,.41-1.54-.69-3.01-1.42-4.43-.79-1.53-1.16-3.28-1.09-5,.04-1.16,.28-2.3,.72-3.37"/><path class="cls-8" d="M49.19,53.79c-2.29-.26-4.47-.46-6.54-.62-4.71-.34-8.82-.44-12.21-.43-8.38,.02-12.1,.68-14.82,3.43-.48,.49-2.33,2.4-2.83,5.18-1.08,6.04,4.97,11.92,9.85,16.08,3.68,3.14,7.44,5.92,11.26,8.44,6.16,4.07,12.48,7.45,18.89,10.52,1.06,.51,2.13,1.02,3.21,1.51,2.17,1.01,4.34,1.99,6.53,2.95,1.17,.52,2.31,1.02,3.42,1.5,1.99,.88,3.89,1.71,5.74,2.51,8.13,3.5,15.19,6.34,24.52,9.39,8.81,2.88,16.15,4.69,28.46,7.55,2.09,.48,4.33,.99,6.75,1.55,7.9,1.82,14.22,3.15,19.81,3.95,7.55,1.08,13.76,1.2,20.69,.26,11.29-1.54,14.34-4.51,15.55-7.08,2.75-5.84-2.34-13.24-3.5-14.95-5.72-8.31-15.11-10.32-17.93-10.82"/><path class="cls-8" d="M19.01,85.44s.02,0,.03,.02c4,2.8,8.08,5.47,12.24,8.01,2.76,1.71,5.56,3.36,8.39,4.93,.87,.5,1.74,.98,2.62,1.45,12.65,6.92,25.91,12.74,39.57,17.36,4.15,1.4,8.63,2.9,11.23,6.44,1.47,2,2.16,4.46,3.08,6.77,.07,.17,.13,.33,.2,.49,2.01,4.84,3.44,5.17,4.2,5.35,2.14,.52,4.97-1.08,5.76-3.08,.32-.81,.17-1.33,.31-2.85,.05-.49,.12-1.07,.26-1.8,.26-1.35,.45-2.02,.95-2.41,.88-.7,2.26,0,5.4,1.01,1.04,.33,2.11,.58,3.16,.87,.39,.11,.76,.22,1.14,.35,4.97,1.63,14.16,2.78,23.9,4.85,.93,.2,2,.39,3.25,.6,4.48,.73,11.26,1.57,22.39,2.96,1.43,.18,2.7,.03,3.55-.76,.44-.41,.61-.88,1.36-1.33,.28-.16,.98-.59,1.88-.51,.97,.08,1.62,.69,2.02,1.08,1.23,1.19,.82,1.96,1.61,2.67,1.62,1.47,4.52-.77,6.04,.72,.47,.45,.19,.64,1.31,2.75,.99,1.87,1.35,1.98,1.54,2,.71,.05,1.59-1.14,1.89-2.36,.72-2.85-1.99-4.75-1.16-7.37,.27-.83,.78-1.39,1.1-1.71,.45-.34,1.15-.77,2.03-.8,.26,0,.53,.04,.55,.04,.7,.11,1.15,.38,1.25,.42,.87,.42,5.07-2.23,6.13-6.45,.59-2.31,.23-4.9-2.22-9.59-2.2-4.21-7.67-14.64-20.4-20.32-3.62-1.61-6.81-2.38-8.88-2.78"/><path class="cls-8" d="M66.01,102.21c-1.63-1.44-2.85-3.39-3.42-5.49-1.1-4.02-.05-8.43,2.24-11.91,2.28-3.48,5.7-6.09,9.39-8.02,2.01-1.04,4.13-1.91,5.95-3.26,1.82-1.34,3.35-3.28,3.57-5.54,.19-2.01-.67-3.94-1.32-5.85s-1.09-4.1-.13-5.87c1.07-1.97,3.49-2.75,5.06-4.36,2.19-2.24,2.43-5.71,3.95-8.44,2.42-4.37,8.42-6.3,12.93-4.16"/><path class="cls-8" d="M83.89,38.87c2.36-3.03,6.08-4.96,9.92-5.14,3.84-.17,7.73,1.41,10.35,4.21,.35,.38,.68,.77,.99,1.19,2.13,2.88,3.13,6.56,3.23,10.17,.12,4.12-.85,8.2-2.04,12.16-4.28,14.24-11.75,27.73-22.75,37.73-3.32,3.01-7.42,5.83-11.84,5.52"/><path class="cls-8" d="M143.47,5.89c.03,.07,.07,.13,.1,.2,2.06,4.27,3.19,8.99,3.26,13.73,0,.1,0,.19,0,.29"/><path class="cls-8" d="M143.84,17.51c1.09,.64,2.1,1.42,2.99,2.31,1.88,1.84,3.29,4.13,4.06,6.63,.43,1.42,.66,2.96,.2,4.38-.3,.93-.96,1.76-1.8,2.23-.44,.24-.93,.38-1.44,.37-1.26-.01-2.37-.89-3.16-1.88s-1.38-2.13-2.24-3.06c-1.51-1.61-3.82-2.41-6-2.08"/><path class="cls-8" d="M149.19,32.65c.03,.14,.06,.27,.1,.41,1.96,7.8,12.26,11.68,13.68,19.67,.59,3.32-.65,6.91-3.17,9.16s-6.22,3.08-9.46,2.12c-2.83-.85-5.79-2.94-8.44-1.64-2.37,1.16-2.81,4.46-2.01,6.97,.79,2.52,2.47,4.69,3.28,7.2,1.09,3.37,.46,7.25-1.63,10.11s-5.6,4.63-9.15,4.62c-1.46,3.58,4.41,7.2,2.86,10.75-.83,1.92-3.29,2.37-5.37,2.57-.82,.08-1.64,.15-2.46,.23-1.64,.15-3.27,.3-4.91,.45"/><path class="cls-8" d="M127.48,105.49c1.79,5.3,.74,11.47-2.71,15.88"/><path class="cls-8" d="M116.41,128.01c-1.22,.58-2.8,1.22-4.71,1.68-1.95,.47-3.69,.62-5.06,.64h-.03"/><path class="cls-8" d="M96.15,131c-3.06-1.25-6.66,1.13-7.83,4.22s-.53,6.56,.39,9.73c.92,3.18,2.12,6.36,2.04,9.66-.08,3.31-1.85,6.86-5.02,7.79-2.86,.84-5.87-.63-8.26-2.41-2.38-1.78-4.59-3.95-7.43-4.84-2.51-.78-5.2-.45-7.8-.12-6.38,.82-12.74,1.62-19.11,2.44-.03,0-.07,.01-.1,.01-.13-.1-.26-.21-.39-.31"/><path class="cls-8" d="M40.25,136.78c.36,.25,.81,.35,1.24,.43,2.34,.48,4.67,.95,7.01,1.42,.48-.69,.13-1.71-.53-2.23-.66-.53-1.54-.68-2.37-.81-1.43-.24-3.29-.88-4.74-.77-1.16,.09-2.04,.98-.61,1.96Z"/><path class="cls-8" d="M62,133.79c-.34,.44-.68,.93-.66,1.48s.61,1.09,1.11,.84c2.01-1.45,3.87-3.13,5.53-4.97,1.21-1.36,1.6-4.3-.86-2.8-1.97,1.18-3.73,3.67-5.12,5.45Z"/><path class="cls-8" d="M45.35,121.73c.42,.23,.94,.1,1.39-.04,3.19-.99,6.27-2.3,9.19-3.9-.39-.49-.79-.97-1.18-1.45-3.37,1.15-6.72,2.45-10.14,3.43,.44,.32-.11,1.51,.74,1.96Z"/><path class="cls-8" d="M113.84,74.3c.37,.24,.54,.68,.68,1.1,1.03,2.99,2.07,5.99,3.1,8.98-.68,.2-1.37,.4-2.05,.6-1.05-2.38-2.1-4.77-3.15-7.16-.35-.8-1.19-1.94-.8-2.78,.31-.68,1.59-1.15,2.22-.74Z"/><path class="cls-8" d="M129.85,50.76c1.23-.52,2.45-1.04,3.68-1.56-1.51-3.58-2.76-7.53-4.66-10.91-2.32,.57-2.44,2.08-1.86,4.08,.22,.73,2.95,8.35,2.84,8.39Z"/><path class="cls-8" d="M127.38,13c-.6-1.14-1.2-2.29-1.8-3.44-2.93,1.13-9.05,1.93-7.06,6.26,.75-.15,8.86-2.82,8.86-2.82Z"/><path class="cls-8" d="M121.3,25.19c-.21-.96-.53-2.04-1.43-2.44-.72-.31-1.55-.06-2.29,.19-2.47,.85-4.94,1.7-7.41,2.54,1.21,2.55,1.31,3.27,4.11,2.26,.6-.22,7.02-2.41,7.02-2.55Z"/><path class="cls-8" d="M97.05,15.25c-.71-.45-1.42-.91-2.13-1.36,0,.07-5.62,8.73-6.04,9.57,2.43,1.05,3-.56,4.27-2.43,1.3-1.93,2.6-3.85,3.9-5.78Z"/><path class="cls-8" d="M68.08,40.54c-1.01-.2-2.11,.22-2.73,1.04-.5,.67-.68,1.52-.83,2.34-.5,2.55-1.12,5.12-1.47,7.69,1.79-.1,3.34-.74,3.95-2.51,.25-.72,1.13-8.55,1.08-8.56Z"/><path class="cls-8" d="M53.01,62.13c-.89,.06-1.61,.84-1.87,1.7-.27,.86-.18,1.78-.09,2.67,.27,2.54,.28,5.29,.85,7.76,2.05-.49,2.41-1.81,2.25-3.68-.06-.71-1.08-8.45-1.14-8.45Z"/><path class="cls-8" d="M53.03,97.14l-.24-.75-1.65-5.28c.99-.3,1.98-.61,2.97-.92,.09,2.67,.73,5.31,1.89,7.71,.05,.13,.12,.25,.18,.38"/><path class="cls-8" d="M39.53,98.65l1.2,8.73c.87,.1,1.73,.19,2.6,.29-.38-2.56-.75-5.11-1.13-7.66"/></g></g></g></svg>