<?xml version="1.0" encoding="UTF-8"?><svg id="Layer_2" xmlns="http://www.w3.org/2000/svg" viewBox="0 0 11.46 6.17"><defs><style>.cls-1{fill:#231f20;}.cls-2{fill:none;stroke:#231f20;stroke-linecap:round;stroke-linejoin:round;stroke-width:.25px;}.cls-3{fill:#a3dadd;opacity:.44;}</style></defs><g id="Layer_1-2"><path class="cls-3" d="M.12,4.3c.12-.14,1.15-1.23,2.33-1.51,.19-.05,.47-.07,1.04-.12,.57-.05,.75-.04,.86,.08,.08,.09,.1,.25,.14,.57,.01,.1,.04,.3,.03,.49,0,.37-.13,1.01-.61,1.55-.26,.29-.54,.47-.77,.58-.25,.06-.85,.16-1.52-.1C.59,5.43,.19,4.47,.12,4.3Z"/><path class="cls-2" d="M.12,4.3c.24-.31,.84-.97,1.85-1.35,1.07-.41,2-.27,2.39-.2,.07,.19,.42,1.22-.12,2.2-.1,.19-.41,.74-1.08,.98-.76,.28-1.44-.05-1.69-.17-.89-.43-1.25-1.24-1.35-1.47Z"/><path class="cls-1" d="M3.77,1.17l.05,.05s.07,.03,.1,0,.03-.07,0-.1l-.05-.05s-.07-.03-.1,0-.03,.07,0,.1h0Z"/><path class="cls-3" d="M6.93,1.73c.12-.13,1.15-1.21,2.33-1.48,.19-.04,.47-.07,1.04-.12,.57-.05,.75-.04,.86,.08,.08,.09,.1,.25,.14,.56,.01,.1,.04,.29,.03,.48,0,.36-.13,.99-.61,1.53-.26,.28-.54,.46-.77,.57-.25,.06-.85,.15-1.52-.1-1.05-.4-1.45-1.34-1.51-1.51Z"/><path class="cls-2" d="M6.93,1.73c.24-.3,.84-.95,1.85-1.33C9.85,0,10.78,.13,11.16,.21c.07,.18,.42,1.2-.12,2.17-.1,.18-.41,.73-1.08,.97-.76,.27-1.44-.05-1.69-.16-.89-.42-1.25-1.22-1.35-1.45Z"/></g></svg>