<?xml version="1.0" encoding="UTF-8"?><svg id="Layer_2" xmlns="http://www.w3.org/2000/svg" viewBox="0 0 31.14 10.75"><defs><style>.cls-1{fill:none;stroke:#231f20;stroke-linecap:round;stroke-linejoin:round;}.cls-2{fill:#ffe09b;}</style></defs><g id="Layer_1-2"><g><path class="cls-2" d="M14.82,2.87c0,.51,.03,1.01,.09,1.51,.03,1.23-.09,2.45-.34,3.65-.12,.58-.34,1.24-.9,1.44-.5,.18-1.08-.12-1.38-.56s-.39-.98-.46-1.51c-.22-1.59-.31-3.2-.29-4.81-.14,1.95-.28,3.92-.94,5.76-.18,.52-.52,1.1-1.07,1.12-.55,.01-.92-.54-1.14-1.04-1.12-2.47-1.41-5.29-.84-7.93h14.46v.22c.48,1.49,2.2,6.86,1.91,8.56-.04,.23-.14,.85-.51,.95-.34,.1-.67-.18-.91-.45-1.75-1.93-3.14-4.18-4.07-6.62,.48,1.98,.41,4.08-.21,6.02-.13,.38-.34,.82-.74,.89-.45,.07-.8-.38-1.02-.78-.83-1.51-1.36-3.19-1.55-4.91,0-.5-.03-1.01-.09-1.51Z"/><g><path class="cls-1" d="M14.82,2.81v.06c.06,.5,.09,1.01,.09,1.51,.03,1.23-.09,2.45-.34,3.65-.12,.58-.34,1.24-.9,1.44-.5,.18-1.08-.12-1.38-.56s-.39-.98-.46-1.51c-.22-1.59-.31-3.2-.29-4.81-.14,1.95-.28,3.92-.94,5.76-.18,.52-.52,1.1-1.07,1.12-.55,.01-.92-.54-1.14-1.04-1.12-2.47-1.41-5.29-.84-7.93"/><path class="cls-1" d="M22.01,.72c.48,1.49,2.2,6.86,1.91,8.56-.04,.23-.14,.85-.51,.95-.34,.1-.67-.18-.91-.45-1.75-1.93-3.14-4.18-4.07-6.62,.48,1.98,.41,4.08-.21,6.02-.13,.38-.34,.82-.74,.89-.45,.07-.8-.38-1.02-.78-.83-1.51-1.36-3.19-1.55-4.91-.06-.5-.09-1-.09-1.51"/></g></g></g></svg>