<?xml version="1.0" encoding="UTF-8"?><svg id="Layer_2" xmlns="http://www.w3.org/2000/svg" viewBox="0 0 217.24 211.38"><defs><style>.cls-1{fill:none;stroke:#231f20;stroke-miterlimit:10;stroke-width:3px;}.cls-2{fill:#d0d2d3;}.cls-3{fill:#db3a33;}.cls-4{fill:#231f20;}.cls-5{fill:#424243;}.cls-6{fill:#808184;}.cls-7{fill:#5a5b5c;}</style></defs><g id="Layer_1-2"><g><g><path class="cls-4" d="M201.07,184.64c8.64,3.78,14.67,12.41,14.67,22.44,0,1.14,0,1.8-.08,2.58h-.05s-14.54-2.58-14.54-2.58c0-5.41-4.39-9.8-9.8-9.8-4.98,0-9.09,3.08-9.71,7.79l-14.62-.59h-.06c.57-9.8,6.96-17.45,15.79-20.47,2.67-.92,5.57-1.41,8.6-1.41,3.49,0,6.8,.73,9.8,2.04Z"/><path class="cls-5" d="M199.31,146.96c2.49,14.77,2.49,27.69,1.76,37.68-3-1.31-6.31-2.04-9.8-2.04-3.03,0-5.93,.49-8.6,1.41,.92-8.11,1.29-19.67-1.43-33.1-.62-3.06-1.35-5.96-2.15-8.68-1.85-6.33-4.07-11.73-6.16-16.11,1.5,.58,3.12,.89,4.82,.89,6.44,0,11.82-4.49,13.18-10.51,.33,.83,.65,1.69,.97,2.57,2.83,7.7,5.58,17.07,7.41,27.89Z"/><path class="cls-6" d="M197.63,77.86c.36,3.2,.55,6.46,.55,9.76,0,11.04-2.08,21.59-5.86,31.29l-.42,.16c-.32-.88-.64-1.74-.97-2.57,.22-.97,.34-1.97,.34-3.01,0-7.47-6.05-13.52-13.52-13.52s-13.51,6.05-13.51,13.52c0,5.77,3.61,10.69,8.69,12.63,2.09,4.38,4.31,9.78,6.16,16.11l-.58,.17c-15.79,19.14-39.7,31.34-66.45,31.34s-50.71-12.23-66.5-31.4c-5.06-6.15-9.29-13.01-12.51-20.41-4.57-10.51-7.11-22.11-7.11-34.31,0-3.3,.19-6.56,.55-9.76H62.21c0,20.23,16.4,36.63,36.63,36.63s36.64-16.4,36.64-36.63h62.15Z"/><path class="cls-2" d="M197.63,77.86h-62.15c0-20.23-16.4-36.63-36.64-36.63s-36.63,16.4-36.63,36.63H26.49C31.34,34.89,67.8,1.5,112.06,1.5s80.72,33.39,85.57,76.36Z"/><path class="cls-7" d="M172.93,126.12c-5.08-1.94-8.69-6.86-8.69-12.63,0-7.47,6.05-13.52,13.51-13.52s13.52,6.05,13.52,13.52c0,1.04-.12,2.04-.34,3.01-1.36,6.02-6.74,10.51-13.18,10.51-1.7,0-3.32-.31-4.82-.89Z"/><path class="cls-3" d="M98.84,41.23c20.24,0,36.64,16.4,36.64,36.63s-16.4,36.63-36.64,36.63-36.63-16.4-36.63-36.63,16.4-36.63,36.63-36.63Z"/><path class="cls-4" d="M50.41,195.81c0,1.15,0,1.81-.08,2.59h-.05s-14.54-2.59-14.54-2.59c0-5.41-4.39-9.8-9.8-9.8-4.98,0-9.09,3.08-9.71,7.79l-14.62-.59h-.06c.61-10.49,7.9-18.5,17.7-21.03,2.12-.55,4.37-.84,6.69-.84,4.96,0,9.57,1.47,13.42,4,6.66,4.37,11.05,11.91,11.05,20.47Z"/><path class="cls-5" d="M45.56,142.34c-1.21,3.1-2.36,6.56-3.34,10.36-2.19,8.58-2.85,16.33-2.86,22.64-3.85-2.53-8.46-4-13.42-4-2.32,0-4.57,.29-6.69,.84,.74-7.6,2.19-16.66,5-26.63,2.59-9.2,5.74-17.1,8.8-23.62,3.22,7.4,7.45,14.26,12.51,20.41Z"/></g><g><line class="cls-1" x1="201.07" y1="207.08" x2="215.61" y2="209.65"/><path class="cls-1" d="M192.32,118.91c3.78-9.7,5.86-20.25,5.86-31.29,0-3.3-.19-6.56-.55-9.76C192.78,34.89,156.32,1.5,112.06,1.5S31.34,34.89,26.49,77.86c-.36,3.2-.55,6.46-.55,9.76,0,12.2,2.54,23.8,7.11,34.31,3.22,7.4,7.45,14.26,12.51,20.41,15.79,19.17,39.72,31.4,66.5,31.4s50.66-12.2,66.45-31.34"/><path class="cls-1" d="M135.48,77.86c0-20.23-16.4-36.63-36.64-36.63s-36.63,16.4-36.63,36.63,16.4,36.63,36.63,36.63,36.64-16.4,36.64-36.63Z"/><line class="cls-1" x1="26.5" y1="77.86" x2="62.21" y2="77.86"/><polyline class="cls-1" points="135.48 77.86 197.63 77.86 198.18 77.86"/><path class="cls-1" d="M50.09,199.8c.12-.56,.19-1,.24-1.4,.09-.78,.08-1.44,.08-2.59,0-8.56-4.39-16.1-11.05-20.47-3.85-2.53-8.46-4-13.42-4-2.32,0-4.57,.29-6.69,.84-9.8,2.53-17.09,10.54-17.7,21.02-.04,.48-.05,.97-.05,1.46"/><path class="cls-1" d="M35.65,197.1c.06-.42,.09-.86,.09-1.29,0-5.41-4.39-9.8-9.8-9.8-4.98,0-9.09,3.08-9.71,7.79-.05,.4-.08,.82-.08,1.25"/><polyline class="cls-1" points="16.35 193.8 16.23 193.8 1.61 193.21"/><line class="cls-1" x1="35.74" y1="195.81" x2="50.28" y2="198.39"/><path class="cls-1" d="M215.42,211.07c.12-.57,.2-1.01,.24-1.41,.09-.78,.08-1.44,.08-2.58,0-10.03-6.03-18.66-14.67-22.44-3-1.31-6.31-2.04-9.8-2.04-3.03,0-5.93,.49-8.6,1.41-8.83,3.02-15.22,10.67-15.79,20.46-.04,.48-.05,.97-.05,1.46"/><path class="cls-1" d="M200.98,208.37c.06-.43,.09-.86,.09-1.29,0-5.41-4.39-9.8-9.8-9.8-4.98,0-9.09,3.08-9.71,7.79-.05,.4-.08,.82-.08,1.25"/><polyline class="cls-1" points="181.68 205.07 181.56 205.07 166.94 204.48"/><path class="cls-1" d="M190.93,116.5c.22-.97,.34-1.97,.34-3.01,0-7.47-6.05-13.52-13.52-13.52s-13.51,6.05-13.51,13.52c0,5.77,3.61,10.69,8.69,12.63,1.5,.58,3.12,.89,4.82,.89,6.44,0,11.82-4.49,13.18-10.51Z"/><path class="cls-1" d="M172.92,126.11h.01c2.09,4.39,4.31,9.79,6.16,16.12,.8,2.72,1.53,5.62,2.15,8.68,2.72,13.43,2.35,24.99,1.43,33.1h0"/><path class="cls-1" d="M190.93,116.49h0c.33,.84,.65,1.7,.97,2.58,2.83,7.7,5.58,17.07,7.41,27.89,2.49,14.77,2.49,27.69,1.76,37.68h0"/><path class="cls-1" d="M33.05,121.93c-3.06,6.52-6.21,14.42-8.8,23.62-2.81,9.97-4.26,19.03-5,26.63"/><path class="cls-1" d="M45.56,142.34c-1.21,3.1-2.36,6.56-3.34,10.36-2.19,8.58-2.85,16.33-2.86,22.64"/></g></g></g></svg>