<?xml version="1.0" encoding="UTF-8"?><svg id="Layer_2" xmlns="http://www.w3.org/2000/svg" xmlns:xlink="http://www.w3.org/1999/xlink" viewBox="0 0 363.35 215.98"><defs><style>.cls-1,.cls-2{fill:#90ffff;}.cls-3,.cls-4{fill:#365cbb;}.cls-5{fill:#406fbb;}.cls-5,.cls-4,.cls-2,.cls-6,.cls-7{fill-rule:evenodd;}.cls-6{fill:#b7ffff;}.cls-7{fill:#68b7e7;}.cls-8{fill:url(#_ÂÁ_Ï_ÌÌ_È_ËÂÌÚ_3);}</style><linearGradient id="_ÂÁ_Ï_ÌÌ_È_ËÂÌÚ_3" x1=".36" y1="215.82" x2="-.01" y2="216.35" gradientUnits="userSpaceOnUse"><stop offset="0" stop-color="#f78e28"/><stop offset=".15" stop-color="#f3872a"/><stop offset=".37" stop-color="#e87531"/><stop offset=".63" stop-color="#d7573d"/><stop offset=".91" stop-color="#bf2d4c"/><stop offset="1" stop-color="#b71e53"/></linearGradient></defs><g id="_ÎÓÈ_1"><g><g><path class="cls-7" d="M208.63,38.2c0,.26-.21,.47-.47,.47s-.47-.21-.47-.47,.21-.47,.47-.47,.47,.21,.47,.47Z"/><path class="cls-7" d="M199.59,88.3c0,.26-.21,.47-.47,.47s-.47-.21-.47-.47,.21-.47,.47-.47,.47,.21,.47,.47Z"/><path class="cls-7" d="M266.34,113.18c0,.26-.21,.47-.47,.47s-.47-.21-.47-.47,.21-.47,.47-.47,.47,.21,.47,.47Z"/><path class="cls-7" d="M279.51,170.26c0,.26-.21,.47-.47,.47s-.47-.21-.47-.47,.21-.47,.47-.47,.47,.21,.47,.47Z"/><path class="cls-5" d="M237.02,94.11c0,.26-.21,.47-.47,.47s-.47-.21-.47-.47,.21-.47,.47-.47,.47,.21,.47,.47Z"/><path class="cls-5" d="M215,83.5c0,.26-.21,.47-.47,.47s-.47-.21-.47-.47,.21-.47,.47-.47,.47,.21,.47,.47Z"/><path class="cls-4" d="M187.65,62.22c0,.26-.21,.47-.47,.47s-.47-.21-.47-.47,.21-.47,.47-.47,.47,.21,.47,.47Z"/><circle class="cls-3" cx="159.02" cy="27.38" r=".47"/><path class="cls-4" d="M214.53,11.46c0,.26-.21,.47-.47,.47s-.47-.21-.47-.47,.21-.47,.47-.47,.47,.21,.47,.47Z"/><path class="cls-4" d="M244.13,93.65c0,.26-.21,.47-.47,.47s-.47-.21-.47-.47,.21-.47,.47-.47,.47,.21,.47,.47Z"/><circle class="cls-3" cx="247.52" cy="7.57" r=".47"/><path class="cls-2" d="M154.25,201.98c0,.26-.21,.47-.47,.47s-.47-.21-.47-.47,.21-.47,.47-.47,.47,.21,.47,.47Z"/><path class="cls-5" d="M264.67,17.76c0,.26-.21,.47-.47,.47s-.47-.21-.47-.47,.21-.47,.47-.47,.47,.21,.47,.47Z"/><path class="cls-5" d="M260.66,79.52c0,.26-.21,.47-.47,.47s-.47-.21-.47-.47,.21-.47,.47-.47,.47,.21,.47,.47Z"/><path class="cls-5" d="M141.72,57.19c0,.26-.21,.47-.47,.47s-.47-.21-.47-.47,.21-.47,.47-.47,.47,.21,.47,.47Z"/><path class="cls-5" d="M331.14,13.59c0,.26-.21,.47-.47,.47s-.47-.21-.47-.47,.21-.47,.47-.47,.47,.21,.47,.47Z"/><path class="cls-5" d="M166.31,81.56c0,.26-.21,.47-.47,.47s-.47-.21-.47-.47,.21-.47,.47-.47,.47,.21,.47,.47Z"/><path class="cls-5" d="M209.16,207.76c0,.26-.21,.47-.47,.47s-.47-.21-.47-.47,.21-.47,.47-.47,.47,.21,.47,.47Z"/><path class="cls-5" d="M363.35,7.59c0,.26-.21,.47-.47,.47s-.47-.21-.47-.47,.21-.47,.47-.47,.47,.21,.47,.47Z"/><path class="cls-5" d="M172.41,24.11c0,.26-.21,.47-.47,.47s-.47-.21-.47-.47,.21-.47,.47-.47,.47,.21,.47,.47Z"/><path class="cls-5" d="M262.91,142.84c0,.26-.21,.47-.47,.47s-.47-.21-.47-.47,.21-.47,.47-.47,.47,.21,.47,.47Z"/><path class="cls-5" d="M114.7,78.62c0,.26-.21,.47-.47,.47s-.47-.21-.47-.47,.21-.47,.47-.47,.47,.21,.47,.47Z"/><path class="cls-5" d="M125.26,12.39c0,.26-.21,.47-.47,.47s-.47-.21-.47-.47,.21-.47,.47-.47,.47,.21,.47,.47Z"/><path class="cls-5" d="M224.49,122.27c0,.26-.21,.47-.47,.47s-.47-.21-.47-.47,.21-.47,.47-.47,.47,.21,.47,.47Z"/><path class="cls-5" d="M188.11,45.23c0,.26-.21,.47-.47,.47s-.47-.21-.47-.47,.21-.47,.47-.47,.47,.21,.47,.47Z"/><path class="cls-5" d="M296.99,156.33c0,.26-.21,.47-.47,.47s-.47-.21-.47-.47,.21-.47,.47-.47,.47,.21,.47,.47Z"/><path class="cls-7" d="M270.08,47.1c0,.26-.21,.47-.47,.47s-.47-.21-.47-.47,.21-.47,.47-.47,.47,.21,.47,.47Z"/><path class="cls-5" d="M292.91,50.97c0,.26-.21,.47-.47,.47s-.47-.21-.47-.47,.21-.47,.47-.47,.47,.21,.47,.47Z"/><path class="cls-5" d="M239.29,171.7c0,.26-.21,.47-.47,.47s-.47-.21-.47-.47,.21-.47,.47-.47,.47,.21,.47,.47Z"/><path class="cls-2" d="M152.07,64.9c0,.26-.21,.47-.47,.47s-.47-.21-.47-.47,.21-.47,.47-.47,.47,.21,.47,.47Z"/><circle class="cls-1" cx="195.08" cy="70.52" r=".47"/><path class="cls-2" d="M190.88,11.92c0,.26-.21,.47-.47,.47s-.47-.21-.47-.47,.21-.47,.47-.47,.47,.21,.47,.47Z"/><path class="cls-2" d="M112.3,47.09c0,.26-.21,.47-.47,.47s-.47-.21-.47-.47,.21-.47,.47-.47,.47,.21,.47,.47Z"/><path class="cls-6" d="M223.47,138.16c0,.26-.21,.47-.47,.47s-.47-.21-.47-.47,.21-.47,.47-.47,.47,.21,.47,.47Z"/><path class="cls-2" d="M204.2,28.84c0,.26-.21,.47-.47,.47s-.47-.21-.47-.47,.21-.47,.47-.47,.47,.21,.47,.47Z"/><path class="cls-2" d="M292.45,92.54c0,.26-.21,.47-.47,.47s-.47-.21-.47-.47,.21-.47,.47-.47,.47,.21,.47,.47Z"/><path class="cls-2" d="M197.93,139.69c0,.26-.21,.47-.47,.47s-.47-.21-.47-.47,.21-.47,.47-.47,.47,.21,.47,.47Z"/><path class="cls-2" d="M133.65,143.75c0,.26-.21,.47-.47,.47s-.47-.21-.47-.47,.21-.47,.47-.47,.47,.21,.47,.47Z"/><path class="cls-2" d="M291.98,4.87c0,.26-.21,.47-.47,.47s-.47-.21-.47-.47,.21-.47,.47-.47,.47,.21,.47,.47Z"/><path class="cls-2" d="M260.4,38.18c0,.26-.21,.47-.47,.47s-.47-.21-.47-.47,.21-.47,.47-.47,.47,.21,.47,.47Z"/><path class="cls-2" d="M244.6,64.9c0,.26-.21,.47-.47,.47s-.47-.21-.47-.47,.21-.47,.47-.47,.47,.21,.47,.47Z"/><path class="cls-2" d="M196.48,65.05c0,.26-.21,.47-.47,.47s-.47-.21-.47-.47,.21-.47,.47-.47,.47,.21,.47,.47Z"/><path class="cls-2" d="M211.45,146.29c0,.26-.21,.47-.47,.47s-.47-.21-.47-.47,.21-.47,.47-.47,.47,.21,.47,.47Z"/><path class="cls-7" d="M198.4,106.07c0,.26-.21,.47-.47,.47s-.47-.21-.47-.47,.21-.47,.47-.47,.47,.21,.47,.47Z"/><path class="cls-5" d="M169.08,87.01c0,.26-.21,.47-.47,.47s-.47-.21-.47-.47,.21-.47,.47-.47,.47,.21,.47,.47Z"/><path class="cls-5" d="M147.06,76.39c0,.26-.21,.47-.47,.47s-.47-.21-.47-.47,.21-.47,.47-.47,.47,.21,.47,.47Z"/><path class="cls-4" d="M119.71,55.11c0,.26-.21,.47-.47,.47s-.47-.21-.47-.47,.21-.47,.47-.47,.47,.21,.47,.47Z"/><path class="cls-4" d="M91.55,20.28c0,.26-.21,.47-.47,.47s-.47-.21-.47-.47,.21-.47,.47-.47,.47,.21,.47,.47Z"/><path class="cls-4" d="M146.59,4.35c0,.26-.21,.47-.47,.47s-.47-.21-.47-.47,.21-.47,.47-.47,.47,.21,.47,.47Z"/><path class="cls-4" d="M99.39,125.32c0,.26-.21,.47-.47,.47s-.47-.21-.47-.47,.21-.47,.47-.47,.47,.21,.47,.47Z"/><path class="cls-4" d="M176.19,86.54c0,.26-.21,.47-.47,.47s-.47-.21-.47-.47,.21-.47,.47-.47,.47,.21,.47,.47Z"/><path class="cls-4" d="M180.05,.47c0,.26-.21,.47-.47,.47s-.47-.21-.47-.47,.21-.47,.47-.47,.47,.21,.47,.47Z"/><path class="cls-5" d="M73.78,50.09c0,.26-.21,.47-.47,.47s-.47-.21-.47-.47,.21-.47,.47-.47,.47,.21,.47,.47Z"/><path class="cls-5" d="M98.38,74.45c0,.26-.21,.47-.47,.47s-.47-.21-.47-.47,.21-.47,.47-.47,.47,.21,.47,.47Z"/><path class="cls-5" d="M104.48,17c0,.26-.21,.47-.47,.47s-.47-.21-.47-.47,.21-.47,.47-.47,.47,.21,.47,.47Z"/><path class="cls-5" d="M101.91,139.65c0,.26-.21,.47-.47,.47s-.47-.21-.47-.47,.21-.47,.47-.47,.47,.21,.47,.47Z"/><path class="cls-5" d="M46.76,71.51c0,.26-.21,.47-.47,.47s-.47-.21-.47-.47,.21-.47,.47-.47,.47,.21,.47,.47Z"/><path class="cls-5" d="M57.33,5.28c0,.26-.21,.47-.47,.47s-.47-.21-.47-.47,.21-.47,.47-.47,.47,.21,.47,.47Z"/><path class="cls-5" d="M120.18,38.13c0,.26-.21,.47-.47,.47s-.47-.21-.47-.47,.21-.47,.47-.47,.47,.21,.47,.47Z"/><path class="cls-2" d="M84.13,57.79c0,.26-.21,.47-.47,.47s-.47-.21-.47-.47,.21-.47,.47-.47,.47,.21,.47,.47Z"/><path class="cls-2" d="M122.94,4.82c0,.26-.21,.47-.47,.47s-.47-.21-.47-.47,.21-.47,.47-.47,.47,.21,.47,.47Z"/><path class="cls-6" d="M155.54,131.05c0,.26-.21,.47-.47,.47s-.47-.21-.47-.47,.21-.47,.47-.47,.47,.21,.47,.47Z"/><path class="cls-2" d="M129.99,132.58c0,.26-.21,.47-.47,.47s-.47-.21-.47-.47,.21-.47,.47-.47,.47,.21,.47,.47Z"/><path class="cls-2" d="M65.71,136.65c0,.26-.21,.47-.47,.47s-.47-.21-.47-.47,.21-.47,.47-.47,.47,.21,.47,.47Z"/><path class="cls-2" d="M192.46,31.08c0,.26-.21,.47-.47,.47s-.47-.21-.47-.47,.21-.47,.47-.47,.47,.21,.47,.47Z"/><path class="cls-2" d="M176.66,57.79c0,.26-.21,.47-.47,.47s-.47-.21-.47-.47,.21-.47,.47-.47,.47,.21,.47,.47Z"/><path class="cls-2" d="M130.04,61.23c0,.26-.21,.47-.47,.47s-.47-.21-.47-.47,.21-.47,.47-.47,.47,.21,.47,.47Z"/><path class="cls-2" d="M143.52,139.18c0,.26-.21,.47-.47,.47s-.47-.21-.47-.47,.21-.47,.47-.47,.47,.21,.47,.47Z"/><path class="cls-2" d="M260.3,136.95c0,.26-.21,.47-.47,.47s-.47-.21-.47-.47,.21-.47,.47-.47,.47,.21,.47,.47Z"/><path class="cls-5" d="M325.38,78.15c0,.26-.21,.47-.47,.47s-.47-.21-.47-.47,.21-.47,.47-.47,.47,.21,.47,.47Z"/><path class="cls-5" d="M286.96,57.59c0,.26-.21,.47-.47,.47s-.47-.21-.47-.47,.21-.47,.47-.47,.47,.21,.47,.47Z"/><path class="cls-5" d="M83.06,10.37c0,.26-.21,.47-.47,.47s-.47-.21-.47-.47,.21-.47,.47-.47,.47,.21,.47,.47Z"/><path class="cls-5" d="M254.13,91.2c0,.26-.21,.47-.47,.47s-.47-.21-.47-.47,.21-.47,.47-.47,.47,.21,.47,.47Z"/><path class="cls-5" d="M301.76,107.01c0,.26-.21,.47-.47,.47s-.47-.21-.47-.47,.21-.47,.47-.47,.47,.21,.47,.47Z"/><path class="cls-2" d="M322.77,72.27c0,.26-.21,.47-.47,.47s-.47-.21-.47-.47,.21-.47,.47-.47,.47,.21,.47,.47Z"/></g><polygon class="cls-8" points=".48 215.97 .5 215.98 0 215.98 .48 215.97"/></g></g></svg>