<?xml version="1.0" encoding="UTF-8"?><svg id="Layer_2" xmlns="http://www.w3.org/2000/svg" viewBox="0 0 163.32 66.28"><defs><style>.cls-1{stroke:#fff;}.cls-1,.cls-2,.cls-3{fill:none;stroke-linecap:round;stroke-linejoin:round;}.cls-2,.cls-3{stroke:#231f20;}.cls-4{fill:#f9ed32;}.cls-5{fill:#ffe09b;}.cls-6{fill:#f4eb37;}.cls-7{fill:#fff;}.cls-8{fill:#231f20;}.cls-3{stroke-width:.25px;}</style></defs><g id="Layer_1-2"><g><g><path class="cls-5" d="M145.23,56.25c.49,1.49,2.21,6.87,1.92,8.56-.05,.24-.15,.85-.51,.95-.34,.1-.67-.18-.91-.44-1.75-1.94-3.14-4.19-4.08-6.63v-2.66h3.58v.22Z"/><path class="cls-5" d="M141.65,58.69c.48,1.98,.41,4.08-.21,6.02-.12,.39-.33,.82-.73,.89-.45,.07-.81-.38-1.03-.78-.8-1.46-1.32-3.08-1.53-4.74-.01-.03-.01-.05-.01-.07,0-.53-.03-1.07-.1-1.6v-2.38h3.61v2.66Z"/><path class="cls-5" d="M138.15,60.08c.01,1.17-.11,2.34-.35,3.48-.12,.58-.35,1.24-.91,1.44-.5,.18-1.07-.12-1.37-.56-.31-.43-.4-.98-.47-1.51-.21-1.59-.31-3.2-.29-4.81v-2.09h3.28v2.38c0,.53,.03,1.07,.1,1.6,0,.02,0,.04,.01,.07Z"/><path class="cls-5" d="M134.76,56.03v2.09c-.13,1.95-.27,3.92-.93,5.76-.19,.52-.52,1.1-1.07,1.12s-.92-.54-1.15-1.04c-1.11-2.47-1.41-5.29-.83-7.93h3.98Z"/><path class="cls-4" d="M129.62,56.03h-16.69c3.8-8.63,4.15-18.8,.62-27.56-5.32-13.18-17.64-20.72-30.05-20.98-.18-.13-1.05-.75-2.43-1.53h0s.31-.55,.31-.55c1.5-.9,14.49-8.27,26.27-3.07,8.37,3.69,14.1,12.82,14.35,13.23,1.46,2.36,5.75,9.94,7.29,33.97,.13,1.94,.24,4.11,.33,6.49Z"/><path class="cls-5" d="M71.88,26.28c-2.23-.06-4.46,.3-6.54,1.08-.57,.22-1.14,.46-1.61,.85-.77,.63-1.22,1.55-1.64,2.46-.83,1.84-1.62,3.98-.78,5.82,.91,2,3.36,2.77,5.55,3.01,1.79,.21,3.6,.22,5.4,.03,.77-.08,1.58-.2,2.2-.67,.78-.57,1.13-1.56,1.3-2.51,.65-3.61-.93-7.52-3.89-9.68v-.38s.01-.01,.01-.01Zm21.07-.8v.39c-2.95,2.16-4.53,6.08-3.88,9.68,.17,.95,.53,1.94,1.3,2.51,.63,.47,1.43,.6,2.21,.68,1.79,.18,3.6,.17,5.4-.03,2.19-.25,4.63-1.01,5.55-3.02,.83-1.84,.05-3.98-.79-5.82-.41-.9-.86-1.83-1.63-2.46-.48-.38-1.04-.63-1.61-.85-2.09-.78-4.33-1.14-6.55-1.08Zm20.6,2.99c3.53,8.76,3.18,18.93-.62,27.56H53.98c-.71-1.96-1.25-3.99-1.66-6.03-1.9-9.64-.61-20.13,4.77-28.35,6.5-9.93,16.49-14.38,26.41-14.16,12.41,.26,24.73,7.8,30.05,20.98Z"/><path class="cls-7" d="M102.74,29.87c.84,1.84,1.62,3.98,.79,5.82-.92,2.01-3.36,2.77-5.55,3.02-1.8,.2-3.61,.21-5.4,.03-.78-.08-1.58-.21-2.21-.68-.77-.57-1.13-1.56-1.3-2.51-.65-3.6,.93-7.52,3.89-9.68v-.39c2.21-.06,4.45,.3,6.54,1.08,.57,.22,1.13,.47,1.61,.85,.77,.63,1.22,1.56,1.63,2.46Zm-4.2,3.75v-2.17l-.75,.43c-.07-.61-.29-1.2-.71-1.62-.16-.16-.5-.5-1.01-.57-.34-.05-.65,.03-.77,.06-.13,.04-.34,.1-.58,.26-.35,.23-.52,.52-.67,.78-.12,.2-.2,.4-.27,.61-.14,.4-.33,.99-.27,1.7,.04,.41,.12,1.31,.78,1.77,.19,.12,.65,.19,1.57,.33,.32,.05,.52,.07,.74,0,.39-.13,.6-.46,.7-.64,.21-.34,.38-.83,.46-1.38l.78,.45Z"/><path class="cls-7" d="M98.54,31.45v2.17l-.78-.45c.07-.42,.08-.86,.03-1.29l.75-.43Z"/><path class="cls-7" d="M97.79,31.88c.05,.43,.04,.87-.03,1.29l-1.11-.64,1.14-.65Z"/><path class="cls-8" d="M97.79,31.88l-1.14,.65,1.11,.64c-.08,.55-.25,1.04-.46,1.38-.1,.18-.31,.51-.7,.64-.22,.08-.42,.06-.74,0-.92-.14-1.38-.21-1.57-.33-.66-.46-.74-1.36-.78-1.77-.06-.71,.13-1.3,.27-1.7,.07-.21,.15-.41,.27-.61,.15-.26,.32-.55,.67-.78,.24-.16,.45-.22,.58-.26,.12-.03,.43-.11,.77-.06,.51,.07,.85,.41,1.01,.57,.42,.42,.64,1.01,.71,1.62Z"/><path class="cls-6" d="M39.22,34.41c1.92-11.97,4.54-16.57,5.62-18.31,.64-1.05,6.27-10.04,14.35-13.24,8.59-3.41,17.64,.66,21.88,3.09h0c1.38,.79,2.25,1.41,2.43,1.54-9.92-.22-19.91,4.23-26.41,14.16-5.38,8.22-6.67,18.71-4.77,28.35,.41,2.04,.95,4.07,1.66,6.03h-16.74c.08-2.18,.19-4.17,.31-5.96,.4-6.27,.99-11.43,1.67-15.66Z"/><path class="cls-7" d="M71.87,26.67c2.96,2.16,4.54,6.07,3.89,9.68-.17,.95-.52,1.94-1.3,2.51-.62,.47-1.43,.59-2.2,.67-1.8,.19-3.61,.18-5.4-.03-2.19-.24-4.64-1.01-5.55-3.01-.84-1.84-.05-3.98,.78-5.82,.42-.91,.87-1.83,1.64-2.46,.47-.39,1.04-.63,1.61-.85,2.08-.78,4.31-1.14,6.54-1.08h0s-.01,.39-.01,.39Zm.77,7.68v-2.18l-1.38,.8c-.05-.3-.14-.56-.21-.77s-.15-.41-.27-.61c-.15-.26-.32-.55-.67-.79-.23-.15-.45-.22-.58-.25-.12-.03-.43-.11-.76-.07-.52,.08-.86,.42-1.01,.58-1.1,1.09-.82,3.32-.23,4.29,.11,.17,.31,.51,.7,.64,.23,.08,.42,.06,.74,.01,.93-.14,1.39-.21,1.57-.33,.66-.46,.74-1.36,.78-1.77,.01-.11,.02-.21,.01-.31l1.31,.76Z"/><path class="cls-7" d="M72.64,32.17v2.18l-1.31-.76c0-.22-.03-.43-.07-.62l1.38-.8Z"/><path class="cls-8" d="M71.33,33.59c.01,.1,0,.2-.01,.31-.04,.41-.12,1.31-.78,1.77-.18,.12-.64,.19-1.57,.33-.32,.05-.51,.07-.74-.01-.39-.13-.59-.47-.7-.64-.59-.97-.87-3.2,.23-4.29,.15-.16,.49-.5,1.01-.58,.33-.04,.64,.04,.76,.07,.13,.03,.35,.1,.58,.25,.35,.24,.52,.53,.67,.79,.12,.2,.2,.4,.27,.61s.16,.47,.21,.77l-.5,.29,.57,.33Z"/><path class="cls-7" d="M71.33,33.59l-.57-.33,.5-.29c.04,.19,.07,.4,.07,.62Z"/><path class="cls-5" d="M36.17,56.25c.45,2.67,.03,5.47-1.19,7.88-.25,.49-.65,1.03-1.2,.99s-.85-.64-1.02-1.17c-.57-1.86-.62-3.84-.66-5.79v-2.13h4.07v.22Z"/><path class="cls-5" d="M32.1,56.03v2.13c-.06,1.6-.23,3.21-.51,4.79-.1,.52-.22,1.06-.54,1.49-.32,.42-.91,.69-1.4,.49-.55-.23-.74-.9-.84-1.48-.18-1.16-.25-2.34-.19-3.51,.01-.01,.01-.02,.01-.03,.09-.56,.16-1.12,.18-1.68v-2.2h3.29Z"/><path class="cls-5" d="M28.81,56.03v2.2c-.09,.55-.15,1.12-.18,1.68,0,.01,0,.02-.01,.03-.28,1.65-.88,3.25-1.75,4.68-.24,.39-.61,.82-1.06,.73-.4-.08-.59-.53-.69-.92-.53-1.96-.51-4.07,.07-6.02v-2.38h3.62Z"/><path class="cls-5" d="M25.19,56.03v2.38c-1.05,2.39-2.54,4.58-4.38,6.43-.25,.25-.59,.52-.93,.4-.36-.12-.43-.74-.46-.97-.21-1.63,1.58-6.54,2.23-8.24h3.54Z"/></g><g><line class="cls-2" x1="92.95" y1="25.48" x2="92.96" y2="25.87"/><line class="cls-2" x1="81.07" y1="5.95" x2="81.38" y2="5.41"/><polyline class="cls-2" points="71.87 26.68 71.87 26.67 71.88 26.29"/><polyline class="cls-2" points="39.17 34.39 39.22 34.41 39.23 34.41"/><path class="cls-2" d="M138.15,60.08c.21,1.66,.73,3.28,1.53,4.74,.22,.4,.58,.85,1.03,.78,.4-.07,.61-.5,.73-.89,.62-1.94,.69-4.04,.21-6.02,.94,2.44,2.33,4.69,4.08,6.63,.24,.26,.57,.54,.91,.44,.36-.1,.46-.71,.51-.95,.29-1.69-1.43-7.07-1.92-8.56"/><path class="cls-2" d="M138.04,58.35v.06c0,.53,.03,1.07,.1,1.6"/><path class="cls-2" d="M138.14,60.01c0-.53-.03-1.07-.1-1.6"/><path class="cls-2" d="M138.14,60.01s0,.04,.01,.07"/><path class="cls-2" d="M130.78,56.03c-.58,2.64-.28,5.46,.83,7.93,.23,.5,.6,1.06,1.15,1.04s.88-.6,1.07-1.12c.66-1.84,.8-3.81,.93-5.76-.02,1.61,.08,3.22,.29,4.81,.07,.53,.16,1.08,.47,1.51,.3,.44,.87,.74,1.37,.56,.56-.2,.79-.86,.91-1.44,.24-1.14,.36-2.31,.35-3.48"/><path class="cls-2" d="M112.85,56.22c.03-.06,.06-.13,.08-.19,3.8-8.63,4.15-18.8,.62-27.56-5.32-13.18-17.64-20.72-30.05-20.98-9.92-.22-19.91,4.23-26.41,14.16-5.38,8.22-6.67,18.71-4.77,28.35,.41,2.04,.95,4.07,1.66,6.03"/><path class="cls-2" d="M83.5,7.49c-.18-.13-1.05-.75-2.43-1.53h0c-4.24-2.44-13.29-6.51-21.88-3.1-8.08,3.2-13.71,12.19-14.35,13.24-1.08,1.74-3.7,6.34-5.62,18.31-.68,4.23-1.27,9.39-1.67,15.66-.12,1.79-.23,3.78-.31,5.96h0"/><path class="cls-2" d="M81.29,5.46s.05-.03,.09-.05c1.5-.9,14.49-8.27,26.27-3.07,8.37,3.69,14.1,12.82,14.35,13.23,1.46,2.36,5.75,9.94,7.29,33.97,.13,1.94,.24,4.11,.33,6.49"/><path class="cls-2" d="M71.26,32.97c-.05-.3-.14-.56-.21-.77s-.15-.41-.27-.61c-.15-.26-.32-.55-.67-.79-.23-.15-.45-.22-.58-.25-.12-.03-.43-.11-.76-.07-.52,.08-.86,.42-1.01,.58-1.1,1.09-.82,3.32-.23,4.29,.11,.17,.31,.51,.7,.64,.23,.08,.42,.06,.74,.01,.93-.14,1.39-.21,1.57-.33,.66-.46,.74-1.36,.78-1.77,.01-.11,.02-.21,.01-.31,0-.22-.03-.43-.07-.62Z"/><path class="cls-2" d="M77.19,27.24c-1.71-.6-3.51-.92-5.31-.96-2.23-.06-4.46,.3-6.54,1.08-.57,.22-1.14,.46-1.61,.85-.77,.63-1.22,1.55-1.64,2.46-.83,1.84-1.62,3.98-.78,5.82,.91,2,3.36,2.77,5.55,3.01,1.79,.21,3.6,.22,5.4,.03,.77-.08,1.58-.2,2.2-.67,.78-.57,1.13-1.56,1.3-2.51,.65-3.61-.93-7.52-3.89-9.68"/><polygon class="cls-1" points="71.26 32.97 70.76 33.26 71.33 33.59 72.64 34.35 72.64 32.17 71.26 32.97"/><path class="cls-2" d="M97.76,33.17c-.08,.55-.25,1.04-.46,1.38-.1,.18-.31,.51-.7,.64-.22,.08-.42,.06-.74,0-.92-.14-1.38-.21-1.57-.33-.66-.46-.74-1.36-.78-1.77-.06-.71,.13-1.3,.27-1.7,.07-.21,.15-.41,.27-.61,.15-.26,.32-.55,.67-.78,.24-.16,.45-.22,.58-.26,.12-.03,.43-.11,.77-.06,.51,.07,.85,.41,1.01,.57,.42,.42,.64,1.01,.71,1.62"/><path class="cls-2" d="M87.65,26.44c1.7-.6,3.49-.92,5.3-.96,2.22-.06,4.46,.3,6.55,1.08,.57,.22,1.13,.47,1.61,.85,.77,.63,1.22,1.56,1.63,2.46,.84,1.84,1.62,3.98,.79,5.82-.92,2.01-3.36,2.77-5.55,3.02-1.8,.2-3.61,.21-5.4,.03-.78-.08-1.58-.21-2.21-.68-.77-.57-1.13-1.56-1.3-2.51-.65-3.6,.93-7.52,3.89-9.68"/><polygon class="cls-1" points="97.79 31.88 96.65 32.53 97.76 33.17 98.54 33.62 98.54 31.45 97.79 31.88"/><path class="cls-2" d="M79.36,45.66c-.39,1.04-.1,2.31,.71,3.07,.81,.77,2.08,1,3.11,.57"/><polyline class="cls-3" points=".25 56.03 21.65 56.03 25.19 56.03 28.81 56.03 32.1 56.03 36.17 56.03 37.24 56.03 53.98 56.03 112.93 56.03 129.62 56.03 130.78 56.03 134.76 56.03 138.04 56.03 141.65 56.03 145.23 56.03 163.07 56.03"/><path class="cls-2" d="M28.62,59.94c-.28,1.65-.88,3.25-1.75,4.68-.24,.39-.61,.82-1.06,.73-.4-.08-.59-.53-.69-.92-.53-1.96-.51-4.07,.07-6.02-1.05,2.39-2.54,4.58-4.38,6.43-.25,.25-.59,.52-.93,.4-.36-.12-.43-.74-.46-.97-.21-1.63,1.58-6.54,2.23-8.24,.03-.08,.06-.16,.08-.22"/><path class="cls-2" d="M28.63,59.91c.03-.56,.09-1.13,.18-1.68-.02,.56-.09,1.12-.18,1.68"/><path class="cls-2" d="M28.63,59.91s0,.02-.01,.03"/><path class="cls-2" d="M36.17,56.25c.45,2.67,.03,5.47-1.19,7.88-.25,.49-.65,1.03-1.2,.99s-.85-.64-1.02-1.17c-.57-1.86-.62-3.84-.66-5.79-.06,1.6-.23,3.21-.51,4.79-.1,.52-.22,1.06-.54,1.49-.32,.42-.91,.69-1.4,.49-.55-.23-.74-.9-.84-1.48-.18-1.16-.25-2.34-.19-3.51"/></g></g></g></svg>